<?xml version="1.0" encoding="UTF-8"?>
<!DOCTYPE svg PUBLIC "-//W3C//DTD SVG 1.1//EN" "http://www.w3.org/Graphics/SVG/1.1/DTD/svg11.dtd">
<svg xmlns="http://www.w3.org/2000/svg" version="1.1" width="1024px" height="1024px" style="shape-rendering:geometricPrecision; text-rendering:geometricPrecision; image-rendering:optimizeQuality; fill-rule:evenodd; clip-rule:evenodd" xmlns:xlink="http://www.w3.org/1999/xlink">
<g><path style="opacity:1" fill="#fefefe" d="M -0.5,-0.5 C 340.833,-0.5 682.167,-0.5 1023.5,-0.5C 1023.5,340.833 1023.5,682.167 1023.5,1023.5C 682.167,1023.5 340.833,1023.5 -0.5,1023.5C -0.5,682.167 -0.5,340.833 -0.5,-0.5 Z"/></g>
<g><path style="opacity:1" fill="#edf4f7" d="M 551.5,376.5 C 564.837,376.333 578.171,376.5 591.5,377C 592.308,378.706 593.641,379.539 595.5,379.5C 595.5,380.833 595.5,382.167 595.5,383.5C 596.822,383.33 597.989,383.663 599,384.5C 599.497,386.81 599.663,389.143 599.5,391.5C 602.167,391.5 604.833,391.5 607.5,391.5C 607.5,394.167 607.5,396.833 607.5,399.5C 608.833,399.5 610.167,399.5 611.5,399.5C 611.5,400.833 611.5,402.167 611.5,403.5C 612.833,403.5 614.167,403.5 615.5,403.5C 615.5,404.833 615.5,406.167 615.5,407.5C 616.833,407.5 618.167,407.5 619.5,407.5C 619.5,408.833 619.5,410.167 619.5,411.5C 620.833,411.5 622.167,411.5 623.5,411.5C 623.5,412.833 623.5,414.167 623.5,415.5C 626.119,415.232 628.619,415.565 631,416.5C 631.499,420.152 631.665,423.818 631.5,427.5C 632.833,427.5 634.167,427.5 635.5,427.5C 635.5,428.833 635.5,430.167 635.5,431.5C 639.182,431.335 642.848,431.501 646.5,432C 648.667,435.493 649.833,439.326 650,443.5C 651.108,470.147 651.608,496.814 651.5,523.5C 651.5,546.336 651.167,569.002 650.5,591.5C 650.5,583.5 650.5,575.5 650.5,567.5C 650.5,547.167 650.5,526.833 650.5,506.5C 650.667,493.829 650.5,481.162 650,468.5C 649.667,469.5 649.333,470.5 649,471.5C 648.667,467.5 648.333,463.5 648,459.5C 647.505,461.473 647.338,463.473 647.5,465.5C 644.833,464.833 642.167,464.167 639.5,463.5C 639.5,460.833 639.5,458.167 639.5,455.5C 638.167,455.5 636.833,455.5 635.5,455.5C 635.5,452.833 635.5,450.167 635.5,447.5C 634.167,447.5 632.833,447.5 631.5,447.5C 631.5,446.167 631.5,444.833 631.5,443.5C 630.167,443.5 628.833,443.5 627.5,443.5C 627.5,442.5 627.5,441.5 627.5,440.5C 623.548,439.728 619.548,439.395 615.5,439.5C 615.5,438.167 615.5,436.833 615.5,435.5C 614.167,435.5 612.833,435.5 611.5,435.5C 611.5,434.167 611.5,432.833 611.5,431.5C 610.167,431.5 608.833,431.5 607.5,431.5C 607.5,428.833 607.5,426.167 607.5,423.5C 606.167,423.5 604.833,423.5 603.5,423.5C 603.5,422.167 603.5,420.833 603.5,419.5C 602.167,419.5 600.833,419.5 599.5,419.5C 599.5,418.167 599.5,416.833 599.5,415.5C 598.167,415.5 596.833,415.5 595.5,415.5C 595.5,414.167 595.5,412.833 595.5,411.5C 594.167,411.5 592.833,411.5 591.5,411.5C 591.5,410.167 591.5,408.833 591.5,407.5C 590.167,407.5 588.833,407.5 587.5,407.5C 587.5,406.167 587.5,404.833 587.5,403.5C 586.167,403.5 584.833,403.5 583.5,403.5C 583.5,400.833 583.5,398.167 583.5,395.5C 582.167,395.5 580.833,395.5 579.5,395.5C 579.5,394.167 579.5,392.833 579.5,391.5C 576.833,391.5 574.167,391.5 571.5,391.5C 571.5,390.167 571.5,388.833 571.5,387.5C 570.167,387.5 568.833,387.5 567.5,387.5C 567.5,386.167 567.5,384.833 567.5,383.5C 568.978,383.762 570.311,383.429 571.5,382.5C 565.211,378.801 558.544,376.801 551.5,376.5 Z"/></g>
<g><path style="opacity:1" fill="#bfd8e6" d="M 479.5,376.5 C 492.833,376.5 506.167,376.5 519.5,376.5C 544.011,381.532 561.511,395.532 572,418.5C 572.494,420.134 572.66,421.801 572.5,423.5C 565.779,421.074 558.779,419.741 551.5,419.5C 549.052,418.527 546.385,418.194 543.5,418.5C 540.92,416.911 539.587,414.578 539.5,411.5C 536.833,411.5 534.167,411.5 531.5,411.5C 531.5,410.167 531.5,408.833 531.5,407.5C 530.167,407.5 528.833,407.5 527.5,407.5C 527.5,406.167 527.5,404.833 527.5,403.5C 526.167,403.5 524.833,403.5 523.5,403.5C 523.5,402.167 523.5,400.833 523.5,399.5C 522.167,399.5 520.833,399.5 519.5,399.5C 519.5,398.167 519.5,396.833 519.5,395.5C 518.167,395.5 516.833,395.5 515.5,395.5C 515.5,394.167 515.5,392.833 515.5,391.5C 514.167,391.5 512.833,391.5 511.5,391.5C 511.5,390.167 511.5,388.833 511.5,387.5C 510.167,387.5 508.833,387.5 507.5,387.5C 507.671,385.007 506.671,383.174 504.5,382C 506.481,381.395 506.815,380.395 505.5,379C 499.555,377.838 493.555,377.338 487.5,377.5C 484.615,377.806 481.948,377.473 479.5,376.5 Z"/></g>
<g><path style="opacity:1" fill="#e1edf3" d="M 519.5,376.5 C 530.167,376.5 540.833,376.5 551.5,376.5C 558.544,376.801 565.211,378.801 571.5,382.5C 570.311,383.429 568.978,383.762 567.5,383.5C 567.5,384.833 567.5,386.167 567.5,387.5C 568.833,387.5 570.167,387.5 571.5,387.5C 571.5,388.833 571.5,390.167 571.5,391.5C 574.167,391.5 576.833,391.5 579.5,391.5C 579.5,392.833 579.5,394.167 579.5,395.5C 580.833,395.5 582.167,395.5 583.5,395.5C 583.5,398.167 583.5,400.833 583.5,403.5C 584.833,403.5 586.167,403.5 587.5,403.5C 587.5,404.833 587.5,406.167 587.5,407.5C 588.833,407.5 590.167,407.5 591.5,407.5C 591.5,408.833 591.5,410.167 591.5,411.5C 592.833,411.5 594.167,411.5 595.5,411.5C 595.5,412.833 595.5,414.167 595.5,415.5C 596.833,415.5 598.167,415.5 599.5,415.5C 599.5,416.833 599.5,418.167 599.5,419.5C 600.833,419.5 602.167,419.5 603.5,419.5C 603.5,420.833 603.5,422.167 603.5,423.5C 604.833,423.5 606.167,423.5 607.5,423.5C 607.5,426.167 607.5,428.833 607.5,431.5C 608.833,431.5 610.167,431.5 611.5,431.5C 611.5,432.833 611.5,434.167 611.5,435.5C 612.833,435.5 614.167,435.5 615.5,435.5C 615.5,436.833 615.5,438.167 615.5,439.5C 619.548,439.395 623.548,439.728 627.5,440.5C 627.5,441.5 627.5,442.5 627.5,443.5C 628.833,443.5 630.167,443.5 631.5,443.5C 631.5,444.833 631.5,446.167 631.5,447.5C 632.833,447.5 634.167,447.5 635.5,447.5C 635.5,450.167 635.5,452.833 635.5,455.5C 636.833,455.5 638.167,455.5 639.5,455.5C 639.5,458.167 639.5,460.833 639.5,463.5C 642.167,464.167 644.833,464.833 647.5,465.5C 647.338,463.473 647.505,461.473 648,459.5C 648.333,463.5 648.667,467.5 649,471.5C 649.333,470.5 649.667,469.5 650,468.5C 650.5,481.162 650.667,493.829 650.5,506.5C 647.349,495.251 642.183,484.918 635,475.5C 626.876,466.548 617.043,460.215 605.5,456.5C 598.139,441.806 587.139,430.806 572.5,423.5C 572.66,421.801 572.494,420.134 572,418.5C 561.511,395.532 544.011,381.532 519.5,376.5 Z"/></g>
<g><path style="opacity:1" fill="#78a7ce" d="M 431.5,378.5 C 433.833,378.5 436.167,378.5 438.5,378.5C 438.987,379.473 439.487,380.473 440,381.5C 441.011,380.663 442.178,380.33 443.5,380.5C 443.64,382.124 442.973,383.29 441.5,384C 442.685,385.353 444.019,386.52 445.5,387.5C 446.429,388.689 446.762,390.022 446.5,391.5C 452.695,389.921 456.028,392.254 456.5,398.5C 458.507,400.008 460.174,401.842 461.5,404C 459.042,408.52 457.709,413.187 457.5,418C 458.944,420.034 460.944,420.868 463.5,420.5C 463.5,420.833 463.5,421.167 463.5,421.5C 460.514,421.903 457.848,422.903 455.5,424.5C 454.5,424.5 453.5,424.5 452.5,424.5C 450.254,423.79 447.92,423.29 445.5,423C 446.422,416.794 444.089,412.128 438.5,409C 438.833,408.667 439.167,408.333 439.5,408C 436.172,408.833 434.839,407.333 435.5,403.5C 432.559,401.929 429.559,400.929 426.5,400.5C 425.833,398.833 425.167,397.167 424.5,395.5C 420.994,394.241 420.66,392.408 423.5,390C 422.137,387.462 420.47,387.129 418.5,389C 419.571,390.825 418.904,391.992 416.5,392.5C 412.906,391.574 409.24,391.241 405.5,391.5C 412.906,384.904 421.572,380.57 431.5,378.5 Z"/></g>
<g><path style="opacity:1" fill="#8ab4d7" d="M 438.5,378.5 C 444.509,378.334 450.509,378.501 456.5,379C 460.515,380.019 464.182,381.519 467.5,383.5C 467.5,382.167 467.5,380.833 467.5,379.5C 470.247,379.187 472.914,379.52 475.5,380.5C 474.167,381.167 472.833,381.833 471.5,382.5C 473.5,383.833 475.5,385.167 477.5,386.5C 473.874,391.199 469.874,396.199 465.5,401.5C 466.025,402.192 466.692,402.692 467.5,403C 466.484,403.519 465.818,404.353 465.5,405.5C 467,407.833 468.5,410.167 470,412.5C 470.684,413.784 470.517,414.951 469.5,416C 477.337,416.1 485.337,416.433 493.5,417C 494.737,417.232 495.737,417.732 496.5,418.5C 494.833,418.5 493.167,418.5 491.5,418.5C 482.066,418.104 472.733,418.771 463.5,420.5C 460.944,420.868 458.944,420.034 457.5,418C 457.709,413.187 459.042,408.52 461.5,404C 460.174,401.842 458.507,400.008 456.5,398.5C 456.028,392.254 452.695,389.921 446.5,391.5C 446.762,390.022 446.429,388.689 445.5,387.5C 444.019,386.52 442.685,385.353 441.5,384C 442.973,383.29 443.64,382.124 443.5,380.5C 442.178,380.33 441.011,380.663 440,381.5C 439.487,380.473 438.987,379.473 438.5,378.5 Z"/></g>
<g><path style="opacity:1" fill="#6a9bc8" d="M 452.5,424.5 C 449.204,426.821 445.871,429.154 442.5,431.5C 441.09,430.172 439.924,430.505 439,432.5C 435.381,429.556 432.547,426.056 430.5,422C 428.559,420.097 426.226,419.264 423.5,419.5C 423.5,418.5 423.5,417.5 423.5,416.5C 419.932,416.241 418.599,414.241 419.5,410.5C 414.674,408.554 410.007,406.22 405.5,403.5C 405.302,400.619 403.802,398.619 401,397.5C 400.235,397.57 399.735,397.903 399.5,398.5C 396.788,400.885 394.122,403.218 391.5,405.5C 395.167,399.833 399.833,395.167 405.5,391.5C 409.24,391.241 412.906,391.574 416.5,392.5C 418.904,391.992 419.571,390.825 418.5,389C 420.47,387.129 422.137,387.462 423.5,390C 420.66,392.408 420.994,394.241 424.5,395.5C 425.167,397.167 425.833,398.833 426.5,400.5C 429.559,400.929 432.559,401.929 435.5,403.5C 434.839,407.333 436.172,408.833 439.5,408C 439.167,408.333 438.833,408.667 438.5,409C 444.089,412.128 446.422,416.794 445.5,423C 447.92,423.29 450.254,423.79 452.5,424.5 Z"/></g>
<g><path style="opacity:1" fill="#9cbfda" d="M 479.5,376.5 C 481.948,377.473 484.615,377.806 487.5,377.5C 488.634,380.629 487.968,383.462 485.5,386C 486.296,387.092 486.963,388.259 487.5,389.5C 485.564,392.063 484.897,394.73 485.5,397.5C 488.084,398.093 491.084,398.593 494.5,399C 495.815,400.395 495.481,401.395 493.5,402C 495.5,402.333 497.5,402.667 499.5,403C 498.552,403.483 497.552,403.649 496.5,403.5C 496.5,404.5 496.5,405.5 496.5,406.5C 499.321,406.316 500.988,407.649 501.5,410.5C 503.396,411.466 505.396,411.799 507.5,411.5C 507.5,412.833 507.5,414.167 507.5,415.5C 508.278,417.105 510.612,418.105 514.5,418.5C 512.167,418.5 509.833,418.5 507.5,418.5C 503.833,418.5 500.167,418.5 496.5,418.5C 495.737,417.732 494.737,417.232 493.5,417C 485.337,416.433 477.337,416.1 469.5,416C 470.517,414.951 470.684,413.784 470,412.5C 468.5,410.167 467,407.833 465.5,405.5C 465.818,404.353 466.484,403.519 467.5,403C 466.692,402.692 466.025,402.192 465.5,401.5C 469.874,396.199 473.874,391.199 477.5,386.5C 475.5,385.167 473.5,383.833 471.5,382.5C 472.833,381.833 474.167,381.167 475.5,380.5C 472.914,379.52 470.247,379.187 467.5,379.5C 467.5,380.833 467.5,382.167 467.5,383.5C 464.182,381.519 460.515,380.019 456.5,379C 450.509,378.501 444.509,378.334 438.5,378.5C 436.167,378.5 433.833,378.5 431.5,378.5C 433.969,377.683 436.635,377.183 439.5,377C 452.829,376.5 466.163,376.333 479.5,376.5 Z"/></g>
<g><path style="opacity:1" fill="#adcce1" d="M 487.5,377.5 C 493.555,377.338 499.555,377.838 505.5,379C 506.815,380.395 506.481,381.395 504.5,382C 506.671,383.174 507.671,385.007 507.5,387.5C 508.833,387.5 510.167,387.5 511.5,387.5C 511.5,388.833 511.5,390.167 511.5,391.5C 512.833,391.5 514.167,391.5 515.5,391.5C 515.5,392.833 515.5,394.167 515.5,395.5C 516.833,395.5 518.167,395.5 519.5,395.5C 519.5,396.833 519.5,398.167 519.5,399.5C 520.833,399.5 522.167,399.5 523.5,399.5C 523.5,400.833 523.5,402.167 523.5,403.5C 524.833,403.5 526.167,403.5 527.5,403.5C 527.5,404.833 527.5,406.167 527.5,407.5C 528.833,407.5 530.167,407.5 531.5,407.5C 531.5,408.833 531.5,410.167 531.5,411.5C 534.167,411.5 536.833,411.5 539.5,411.5C 539.587,414.578 540.92,416.911 543.5,418.5C 533.833,418.5 524.167,418.5 514.5,418.5C 510.612,418.105 508.278,417.105 507.5,415.5C 507.5,414.167 507.5,412.833 507.5,411.5C 505.396,411.799 503.396,411.466 501.5,410.5C 500.988,407.649 499.321,406.316 496.5,406.5C 496.5,405.5 496.5,404.5 496.5,403.5C 497.552,403.649 498.552,403.483 499.5,403C 497.5,402.667 495.5,402.333 493.5,402C 495.481,401.395 495.815,400.395 494.5,399C 491.084,398.593 488.084,398.093 485.5,397.5C 484.897,394.73 485.564,392.063 487.5,389.5C 486.963,388.259 486.296,387.092 485.5,386C 487.968,383.462 488.634,380.629 487.5,377.5 Z"/></g>
<g><path style="opacity:1" fill="#5a8bc1" d="M 399.5,398.5 C 401.624,403.412 403.124,408.745 404,414.5C 405.011,415.337 406.178,415.67 407.5,415.5C 406.939,417.908 406.439,420.241 406,422.5C 409.057,423.451 412.223,423.784 415.5,423.5C 415.5,426.167 415.5,428.833 415.5,431.5C 416.833,431.5 418.167,431.5 419.5,431.5C 419.5,432.833 419.5,434.167 419.5,435.5C 422.167,435.5 424.833,435.5 427.5,435.5C 427.773,437.451 427.107,438.951 425.5,440C 426.849,440.772 427.682,441.939 428,443.5C 429.727,441.923 431.394,439.59 433,436.5C 433.483,435.552 433.649,434.552 433.5,433.5C 435.322,433.831 436.989,434.498 438.5,435.5C 433.089,439.577 428.756,444.577 425.5,450.5C 424.437,446.667 423.604,446.667 423,450.5C 420.756,448.679 419.59,446.346 419.5,443.5C 418.167,443.5 416.833,443.5 415.5,443.5C 415.5,442.167 415.5,440.833 415.5,439.5C 414.167,439.5 412.833,439.5 411.5,439.5C 411.116,437.071 410.449,434.737 409.5,432.5C 406.518,432.037 403.518,431.704 400.5,431.5C 400.616,428.09 398.95,426.756 395.5,427.5C 395.719,426.325 395.386,425.325 394.5,424.5C 391.687,423.781 388.854,423.114 386,422.5C 385.228,422.645 384.561,422.978 384,423.5C 383.503,426.146 383.336,428.813 383.5,431.5C 381.872,433.653 380.372,435.986 379,438.5C 378.5,446.827 378.334,455.16 378.5,463.5C 378.5,476.833 378.5,490.167 378.5,503.5C 378.5,532.167 378.5,560.833 378.5,589.5C 377.335,538.335 377.168,487.002 378,435.5C 380.118,424.269 384.618,414.269 391.5,405.5C 394.122,403.218 396.788,400.885 399.5,398.5 Z"/></g>
<g><path style="opacity:1" fill="#4c97c9" d="M 484.5,466.5 C 484.5,465.5 484.5,464.5 484.5,463.5C 483.5,463.5 482.5,463.5 481.5,463.5C 481.927,460.212 481.26,457.212 479.5,454.5C 480.689,453.571 482.022,453.238 483.5,453.5C 483.5,450.167 483.5,446.833 483.5,443.5C 482.167,443.5 480.833,443.5 479.5,443.5C 479.5,444.833 479.5,446.167 479.5,447.5C 478.167,447.5 476.833,447.5 475.5,447.5C 475.5,446.167 475.5,444.833 475.5,443.5C 474.167,443.5 472.833,443.5 471.5,443.5C 471.5,442.167 471.5,440.833 471.5,439.5C 470.167,439.5 468.833,439.5 467.5,439.5C 467.5,438.167 467.5,436.833 467.5,435.5C 466.167,435.5 464.833,435.5 463.5,435.5C 463.5,432.833 463.5,430.167 463.5,427.5C 460.614,428.246 457.614,428.08 454.5,427C 456.087,426.138 457.754,425.471 459.5,425C 458.207,424.51 456.873,424.343 455.5,424.5C 457.848,422.903 460.514,421.903 463.5,421.5C 465.547,421.511 467.547,421.844 469.5,422.5C 471.325,421.349 473.325,420.682 475.5,420.5C 475.5,421.5 475.5,422.5 475.5,423.5C 478.833,423.5 482.167,423.5 485.5,423.5C 485.846,426.885 486.512,430.218 487.5,433.5C 486.268,435.05 485.768,436.717 486,438.5C 489.057,439.451 492.223,439.784 495.5,439.5C 496.474,442.965 497.808,446.299 499.5,449.5C 498.246,451.334 497.579,453.334 497.5,455.5C 495.5,455.5 493.5,455.5 491.5,455.5C 491.657,456.873 491.49,458.207 491,459.5C 488.817,461.907 486.65,464.24 484.5,466.5 Z"/></g>
<g><path style="opacity:1" fill="#94c4dc" d="M 551.5,419.5 C 558.779,419.741 565.779,421.074 572.5,423.5C 587.139,430.806 598.139,441.806 605.5,456.5C 606.696,459.421 607.696,462.421 608.5,465.5C 607.883,465.611 607.383,465.944 607,466.5C 606.94,463.21 605.607,462.21 603,463.5C 599.099,461.376 594.932,460.043 590.5,459.5C 589.885,456.564 588.718,453.897 587,451.5C 586.785,447.715 586.619,444.048 586.5,440.5C 585.833,440.833 585.167,441.167 584.5,441.5C 583.738,440.372 583.071,439.205 582.5,438C 576.048,435.691 569.714,433.191 563.5,430.5C 561.999,429.248 560.332,428.248 558.5,427.5C 557.571,426.311 557.238,424.978 557.5,423.5C 556.167,423.5 554.833,423.5 553.5,423.5C 553.473,421.801 552.806,420.467 551.5,419.5 Z"/></g>
<g><path style="opacity:1" fill="#5e93c6" d="M 399.5,398.5 C 399.735,397.903 400.235,397.57 401,397.5C 403.802,398.619 405.302,400.619 405.5,403.5C 410.007,406.22 414.674,408.554 419.5,410.5C 418.599,414.241 419.932,416.241 423.5,416.5C 423.5,417.5 423.5,418.5 423.5,419.5C 426.226,419.264 428.559,420.097 430.5,422C 432.547,426.056 435.381,429.556 439,432.5C 439.924,430.505 441.09,430.172 442.5,431.5C 441.5,432.5 440.5,433.5 439.5,434.5C 439.5,435.167 439.167,435.5 438.5,435.5C 436.989,434.498 435.322,433.831 433.5,433.5C 433.649,434.552 433.483,435.552 433,436.5C 431.394,439.59 429.727,441.923 428,443.5C 427.682,441.939 426.849,440.772 425.5,440C 427.107,438.951 427.773,437.451 427.5,435.5C 424.833,435.5 422.167,435.5 419.5,435.5C 419.5,434.167 419.5,432.833 419.5,431.5C 418.167,431.5 416.833,431.5 415.5,431.5C 415.5,428.833 415.5,426.167 415.5,423.5C 412.223,423.784 409.057,423.451 406,422.5C 406.439,420.241 406.939,417.908 407.5,415.5C 406.178,415.67 405.011,415.337 404,414.5C 403.124,408.745 401.624,403.412 399.5,398.5 Z"/></g>
<g><path style="opacity:1" fill="#7eb8da" d="M 509.5,419.5 C 517.84,419.334 526.173,419.5 534.5,420C 537.072,422.287 540.072,423.453 543.5,423.5C 543.5,426.167 543.5,428.833 543.5,431.5C 544.833,431.5 546.167,431.5 547.5,431.5C 547.33,434.491 548.663,436.491 551.5,437.5C 554.086,438.48 556.753,438.813 559.5,438.5C 559.5,440.167 559.5,441.833 559.5,443.5C 560.833,443.5 562.167,443.5 563.5,443.5C 563.5,444.833 563.5,446.167 563.5,447.5C 568.276,447.211 570.442,449.544 570,454.5C 573.606,456.378 575.106,459.378 574.5,463.5C 578.637,463.146 582.637,463.646 586.5,465C 587.423,467.041 587.756,469.208 587.5,471.5C 590.5,471.167 591.833,472.5 591.5,475.5C 586.579,475.135 586.245,476.135 590.5,478.5C 593.705,475.9 596.872,475.9 600,478.5C 601.215,482.835 602.382,487.169 603.5,491.5C 604.873,491.343 606.207,491.51 607.5,492C 607.989,494.209 608.989,496.042 610.5,497.5C 610.5,500.833 610.5,504.167 610.5,507.5C 610.5,516.833 610.5,526.167 610.5,535.5C 609.508,528.352 609.175,521.019 609.5,513.5C 610.069,507.801 609.069,502.468 606.5,497.5C 603.807,495.73 600.807,495.063 597.5,495.5C 596.201,491.63 595.534,487.63 595.5,483.5C 593.856,483.286 592.356,483.62 591,484.5C 589.833,483.333 588.667,482.167 587.5,481C 583.728,480.594 580.061,479.761 576.5,478.5C 577.5,477.833 578.5,477.167 579.5,476.5C 574.167,475.167 574.167,473.833 579.5,472.5C 578.311,471.571 576.978,471.238 575.5,471.5C 575.5,470.167 575.5,468.833 575.5,467.5C 573.833,467.5 572.167,467.5 570.5,467.5C 570.833,464.833 571.167,462.167 571.5,459.5C 562.417,459.809 558.084,455.476 558.5,446.5C 554.304,444.199 549.97,443.532 545.5,444.5C 540.395,439.897 535.395,435.064 530.5,430C 523.677,425.922 516.677,422.422 509.5,419.5 Z"/></g>
<g><path style="opacity:1" fill="#4692c8" d="M 452.5,424.5 C 453.5,424.5 454.5,424.5 455.5,424.5C 456.873,424.343 458.207,424.51 459.5,425C 457.754,425.471 456.087,426.138 454.5,427C 457.614,428.08 460.614,428.246 463.5,427.5C 463.5,430.167 463.5,432.833 463.5,435.5C 464.833,435.5 466.167,435.5 467.5,435.5C 467.5,436.833 467.5,438.167 467.5,439.5C 468.833,439.5 470.167,439.5 471.5,439.5C 471.5,440.833 471.5,442.167 471.5,443.5C 472.833,443.5 474.167,443.5 475.5,443.5C 475.5,444.833 475.5,446.167 475.5,447.5C 476.833,447.5 478.167,447.5 479.5,447.5C 479.5,446.167 479.5,444.833 479.5,443.5C 480.833,443.5 482.167,443.5 483.5,443.5C 483.5,446.833 483.5,450.167 483.5,453.5C 482.022,453.238 480.689,453.571 479.5,454.5C 481.26,457.212 481.927,460.212 481.5,463.5C 482.5,463.5 483.5,463.5 484.5,463.5C 484.5,464.5 484.5,465.5 484.5,466.5C 482.771,467.236 481.771,468.57 481.5,470.5C 475.939,474.306 471.272,478.973 467.5,484.5C 467.69,480.711 469.357,477.711 472.5,475.5C 472.137,474.817 471.804,474.15 471.5,473.5C 476.833,473.167 476.833,472.833 471.5,472.5C 471.072,469.436 470.406,466.436 469.5,463.5C 467.5,463.5 465.5,463.5 463.5,463.5C 463.5,459.5 463.5,455.5 463.5,451.5C 460.833,451.5 458.167,451.5 455.5,451.5C 455.5,450.167 455.5,448.833 455.5,447.5C 452.833,447.5 450.167,447.5 447.5,447.5C 447.5,446.167 447.5,444.833 447.5,443.5C 444.845,443.341 442.512,442.341 440.5,440.5C 443.853,439.619 444.353,437.953 442,435.5C 441.329,434.748 440.496,434.414 439.5,434.5C 440.5,433.5 441.5,432.5 442.5,431.5C 445.871,429.154 449.204,426.821 452.5,424.5 Z"/></g>
<g><path style="opacity:1" fill="#65a3c7" d="M 491.5,418.5 C 493.167,418.5 494.833,418.5 496.5,418.5C 500.167,418.5 503.833,418.5 507.5,418.5C 507.842,419.338 508.508,419.672 509.5,419.5C 516.677,422.422 523.677,425.922 530.5,430C 535.395,435.064 540.395,439.897 545.5,444.5C 548.949,450.672 552.116,457.005 555,463.5C 555.696,467.051 556.53,470.551 557.5,474C 557.392,475.681 556.725,476.848 555.5,477.5C 545.276,467.875 533.276,461.875 519.5,459.5C 522.909,457.986 526.242,458.32 529.5,460.5C 531.49,459.537 531.823,458.204 530.5,456.5C 528.929,457.309 527.262,457.643 525.5,457.5C 525.844,454.38 525.177,451.547 523.5,449C 524.296,447.908 524.963,446.741 525.5,445.5C 524.36,442.752 523.026,440.085 521.5,437.5C 511.801,438.463 506.801,434.13 506.5,424.5C 503.557,423.756 500.557,423.256 497.5,423C 495.184,421.702 493.184,420.202 491.5,418.5 Z"/></g>
<g><path style="opacity:1" fill="#408cc9" d="M 439.5,434.5 C 440.496,434.414 441.329,434.748 442,435.5C 444.353,437.953 443.853,439.619 440.5,440.5C 442.512,442.341 444.845,443.341 447.5,443.5C 447.5,444.833 447.5,446.167 447.5,447.5C 450.167,447.5 452.833,447.5 455.5,447.5C 455.5,448.833 455.5,450.167 455.5,451.5C 458.167,451.5 460.833,451.5 463.5,451.5C 463.5,455.5 463.5,459.5 463.5,463.5C 465.5,463.5 467.5,463.5 469.5,463.5C 470.406,466.436 471.072,469.436 471.5,472.5C 476.833,472.833 476.833,473.167 471.5,473.5C 465.173,474.247 459.173,475.913 453.5,478.5C 451.389,477.032 449.556,477.365 448,479.5C 447.501,475.514 447.334,471.514 447.5,467.5C 446.167,467.5 444.833,467.5 443.5,467.5C 443.5,466.167 443.5,464.833 443.5,463.5C 442.167,463.5 440.833,463.5 439.5,463.5C 439.5,462.167 439.5,460.833 439.5,459.5C 438.167,459.5 436.833,459.5 435.5,459.5C 435.5,458.167 435.5,456.833 435.5,455.5C 432.813,455.664 430.146,455.497 427.5,455C 426.944,454.617 426.611,454.117 426.5,453.5C 425.89,452.609 425.557,451.609 425.5,450.5C 428.756,444.577 433.089,439.577 438.5,435.5C 439.167,435.5 439.5,435.167 439.5,434.5 Z"/></g>
<g><path style="opacity:1" fill="#4e85c2" d="M 425.5,450.5 C 425.557,451.609 425.89,452.609 426.5,453.5C 424.32,455.863 422.653,458.53 421.5,461.5C 421.5,460.5 421.5,459.5 421.5,458.5C 415.314,459.958 411.981,457.625 411.5,451.5C 410.167,451.5 408.833,451.5 407.5,451.5C 407.5,450.167 407.5,448.833 407.5,447.5C 406.167,447.5 404.833,447.5 403.5,447.5C 403.5,446.167 403.5,444.833 403.5,443.5C 402.167,443.5 400.833,443.5 399.5,443.5C 399.191,440.654 397.525,439.154 394.5,439C 391.763,434.977 388.097,432.477 383.5,431.5C 383.336,428.813 383.503,426.146 384,423.5C 384.561,422.978 385.228,422.645 386,422.5C 388.854,423.114 391.687,423.781 394.5,424.5C 395.386,425.325 395.719,426.325 395.5,427.5C 398.95,426.756 400.616,428.09 400.5,431.5C 403.518,431.704 406.518,432.037 409.5,432.5C 410.449,434.737 411.116,437.071 411.5,439.5C 412.833,439.5 414.167,439.5 415.5,439.5C 415.5,440.833 415.5,442.167 415.5,443.5C 416.833,443.5 418.167,443.5 419.5,443.5C 419.59,446.346 420.756,448.679 423,450.5C 423.604,446.667 424.437,446.667 425.5,450.5 Z"/></g>
<g><path style="opacity:1" fill="#559bc6" d="M 491.5,418.5 C 493.184,420.202 495.184,421.702 497.5,423C 500.557,423.256 503.557,423.756 506.5,424.5C 506.801,434.13 511.801,438.463 521.5,437.5C 523.026,440.085 524.36,442.752 525.5,445.5C 524.963,446.741 524.296,447.908 523.5,449C 525.177,451.547 525.844,454.38 525.5,457.5C 527.262,457.643 528.929,457.309 530.5,456.5C 531.823,458.204 531.49,459.537 529.5,460.5C 526.242,458.32 522.909,457.986 519.5,459.5C 505.509,458.891 492.843,462.558 481.5,470.5C 481.771,468.57 482.771,467.236 484.5,466.5C 486.65,464.24 488.817,461.907 491,459.5C 491.49,458.207 491.657,456.873 491.5,455.5C 493.5,455.5 495.5,455.5 497.5,455.5C 497.579,453.334 498.246,451.334 499.5,449.5C 497.808,446.299 496.474,442.965 495.5,439.5C 492.223,439.784 489.057,439.451 486,438.5C 485.768,436.717 486.268,435.05 487.5,433.5C 486.512,430.218 485.846,426.885 485.5,423.5C 482.167,423.5 478.833,423.5 475.5,423.5C 475.5,422.5 475.5,421.5 475.5,420.5C 473.325,420.682 471.325,421.349 469.5,422.5C 467.547,421.844 465.547,421.511 463.5,421.5C 463.5,421.167 463.5,420.833 463.5,420.5C 472.733,418.771 482.066,418.104 491.5,418.5 Z"/></g>
<g><path style="opacity:1" fill="#3d73b9" d="M 403.5,466.5 C 401.374,467.126 399.707,468.459 398.5,470.5C 396.257,471.474 393.924,471.808 391.5,471.5C 390.857,474.202 390.19,476.535 389.5,478.5C 388.914,478.291 388.414,477.957 388,477.5C 387.505,475.527 387.338,473.527 387.5,471.5C 386.167,471.5 384.833,471.5 383.5,471.5C 383.5,468.833 383.5,466.167 383.5,463.5C 382.5,463.5 381.5,463.5 380.5,463.5C 380.175,458.401 380.675,453.401 382,448.5C 382.333,448.167 382.667,447.833 383,447.5C 383.567,450.168 384.067,452.834 384.5,455.5C 386.833,455.5 389.167,455.5 391.5,455.5C 391.5,458.167 391.5,460.833 391.5,463.5C 394.167,463.5 396.833,463.5 399.5,463.5C 399.5,464.5 399.5,465.5 399.5,466.5C 400.833,466.5 402.167,466.5 403.5,466.5 Z"/></g>
<g><path style="opacity:1" fill="#437abb" d="M 383.5,431.5 C 388.097,432.477 391.763,434.977 394.5,439C 397.525,439.154 399.191,440.654 399.5,443.5C 400.833,443.5 402.167,443.5 403.5,443.5C 403.5,444.833 403.5,446.167 403.5,447.5C 404.833,447.5 406.167,447.5 407.5,447.5C 407.5,448.833 407.5,450.167 407.5,451.5C 408.833,451.5 410.167,451.5 411.5,451.5C 411.981,457.625 415.314,459.958 421.5,458.5C 421.5,459.5 421.5,460.5 421.5,461.5C 420.833,461.5 420.5,461.833 420.5,462.5C 419.833,462.5 419.5,462.833 419.5,463.5C 418.171,462.406 417.337,461.073 417,459.5C 412.253,461.456 407.753,463.789 403.5,466.5C 402.167,466.5 400.833,466.5 399.5,466.5C 399.5,465.5 399.5,464.5 399.5,463.5C 396.833,463.5 394.167,463.5 391.5,463.5C 391.5,460.833 391.5,458.167 391.5,455.5C 389.167,455.5 386.833,455.5 384.5,455.5C 384.067,452.834 383.567,450.168 383,447.5C 382.667,447.833 382.333,448.167 382,448.5C 380.675,453.401 380.175,458.401 380.5,463.5C 379.833,463.5 379.167,463.5 378.5,463.5C 378.334,455.16 378.5,446.827 379,438.5C 380.372,435.986 381.872,433.653 383.5,431.5 Z"/></g>
<g><path style="opacity:1" fill="#88bedb" d="M 507.5,418.5 C 509.833,418.5 512.167,418.5 514.5,418.5C 524.167,418.5 533.833,418.5 543.5,418.5C 546.385,418.194 549.052,418.527 551.5,419.5C 552.806,420.467 553.473,421.801 553.5,423.5C 554.833,423.5 556.167,423.5 557.5,423.5C 557.238,424.978 557.571,426.311 558.5,427.5C 560.332,428.248 561.999,429.248 563.5,430.5C 569.714,433.191 576.048,435.691 582.5,438C 583.071,439.205 583.738,440.372 584.5,441.5C 585.167,441.167 585.833,440.833 586.5,440.5C 586.619,444.048 586.785,447.715 587,451.5C 588.718,453.897 589.885,456.564 590.5,459.5C 594.932,460.043 599.099,461.376 603,463.5C 605.607,462.21 606.94,463.21 607,466.5C 607.383,465.944 607.883,465.611 608.5,465.5C 610.156,471.365 610.823,477.365 610.5,483.5C 610.5,487.5 610.5,491.5 610.5,495.5C 610.5,496.167 610.5,496.833 610.5,497.5C 608.989,496.042 607.989,494.209 607.5,492C 606.207,491.51 604.873,491.343 603.5,491.5C 602.382,487.169 601.215,482.835 600,478.5C 596.872,475.9 593.705,475.9 590.5,478.5C 586.245,476.135 586.579,475.135 591.5,475.5C 591.833,472.5 590.5,471.167 587.5,471.5C 587.756,469.208 587.423,467.041 586.5,465C 582.637,463.646 578.637,463.146 574.5,463.5C 575.106,459.378 573.606,456.378 570,454.5C 570.442,449.544 568.276,447.211 563.5,447.5C 563.5,446.167 563.5,444.833 563.5,443.5C 562.167,443.5 560.833,443.5 559.5,443.5C 559.5,441.833 559.5,440.167 559.5,438.5C 556.753,438.813 554.086,438.48 551.5,437.5C 548.663,436.491 547.33,434.491 547.5,431.5C 546.167,431.5 544.833,431.5 543.5,431.5C 543.5,428.833 543.5,426.167 543.5,423.5C 540.072,423.453 537.072,422.287 534.5,420C 526.173,419.5 517.84,419.334 509.5,419.5C 508.508,419.672 507.842,419.338 507.5,418.5 Z"/></g>
<g><path style="opacity:1" fill="#3e87cb" d="M 426.5,453.5 C 426.611,454.117 426.944,454.617 427.5,455C 430.146,455.497 432.813,455.664 435.5,455.5C 435.5,456.833 435.5,458.167 435.5,459.5C 436.833,459.5 438.167,459.5 439.5,459.5C 439.5,460.833 439.5,462.167 439.5,463.5C 440.833,463.5 442.167,463.5 443.5,463.5C 443.5,464.833 443.5,466.167 443.5,467.5C 444.833,467.5 446.167,467.5 447.5,467.5C 447.334,471.514 447.501,475.514 448,479.5C 449.556,477.365 451.389,477.032 453.5,478.5C 450.55,480.115 447.884,482.115 445.5,484.5C 443.589,485.075 441.922,486.075 440.5,487.5C 439.027,486.929 437.36,486.929 435.5,487.5C 435.5,486.167 435.5,484.833 435.5,483.5C 434.167,483.5 432.833,483.5 431.5,483.5C 431.5,482.167 431.5,480.833 431.5,479.5C 430.167,479.5 428.833,479.5 427.5,479.5C 428.106,476.084 427.106,473.418 424.5,471.5C 423.54,468.27 422.207,465.27 420.5,462.5C 420.5,461.833 420.833,461.5 421.5,461.5C 422.653,458.53 424.32,455.863 426.5,453.5 Z"/></g>
<g><path style="opacity:1" fill="#c4dbe8" d="M 605.5,456.5 C 617.043,460.215 626.876,466.548 635,475.5C 642.183,484.918 647.349,495.251 650.5,506.5C 650.5,526.833 650.5,547.167 650.5,567.5C 649.549,566.081 649.216,564.415 649.5,562.5C 649.768,544.443 649.102,531.109 647.5,522.5C 646.167,522.5 644.833,522.5 643.5,522.5C 643.5,521.5 643.5,520.5 643.5,519.5C 640.833,519.5 638.167,519.5 635.5,519.5C 635.5,518.167 635.5,516.833 635.5,515.5C 634.167,515.5 632.833,515.5 631.5,515.5C 631.5,514.167 631.5,512.833 631.5,511.5C 630.167,511.5 628.833,511.5 627.5,511.5C 627.5,508.833 627.5,506.167 627.5,503.5C 625.738,503.357 624.071,503.691 622.5,504.5C 621.158,502.995 619.492,502.328 617.5,502.5C 617.039,500.084 615.706,498.25 613.5,497C 613.645,496.228 613.978,495.561 614.5,495C 613.546,490.949 612.213,487.115 610.5,483.5C 610.823,477.365 610.156,471.365 608.5,465.5C 607.696,462.421 606.696,459.421 605.5,456.5 Z"/></g>
<g><path style="opacity:1" fill="#fdfefe" d="M 519.5,459.5 C 533.276,461.875 545.276,467.875 555.5,477.5C 557.925,481.352 560.591,485.019 563.5,488.5C 569.418,502.272 571.085,516.605 568.5,531.5C 566.047,537.74 563.047,543.74 559.5,549.5C 556.167,553.5 552.5,557.167 548.5,560.5C 544.492,562.837 540.492,565.17 536.5,567.5C 527.152,570.94 517.485,572.274 507.5,571.5C 503.538,570.624 499.538,569.958 495.5,569.5C 492.241,567.847 488.907,566.181 485.5,564.5C 482.567,562.355 479.567,560.188 476.5,558C 473.302,553.974 469.968,550.141 466.5,546.5C 457.568,529.053 456.235,511.053 462.5,492.5C 464.153,489.869 465.819,487.203 467.5,484.5C 471.272,478.973 475.939,474.306 481.5,470.5C 492.843,462.558 505.509,458.891 519.5,459.5 Z"/></g>
<g><path style="opacity:1" fill="#75b2d3" d="M 609.5,513.5 C 609.167,513.5 608.833,513.5 608.5,513.5C 608.662,511.473 608.495,509.473 608,507.5C 605.936,508.591 603.769,508.758 601.5,508C 600.027,507.29 599.36,506.124 599.5,504.5C 596.729,504.579 594.063,504.079 591.5,503C 589.873,500.246 588.373,497.412 587,494.5C 586.667,494.833 586.333,495.167 586,495.5C 584.198,490.524 580.698,487.857 575.5,487.5C 575.5,486.167 575.5,484.833 575.5,483.5C 571.719,483.907 568.719,482.574 566.5,479.5C 565.749,480.376 565.249,481.376 565,482.5C 563.648,480.406 563.148,478.073 563.5,475.5C 562.167,475.5 560.833,475.5 559.5,475.5C 560.833,479.833 562.167,484.167 563.5,488.5C 560.591,485.019 557.925,481.352 555.5,477.5C 556.725,476.848 557.392,475.681 557.5,474C 556.53,470.551 555.696,467.051 555,463.5C 552.116,457.005 548.949,450.672 545.5,444.5C 549.97,443.532 554.304,444.199 558.5,446.5C 558.084,455.476 562.417,459.809 571.5,459.5C 571.167,462.167 570.833,464.833 570.5,467.5C 572.167,467.5 573.833,467.5 575.5,467.5C 575.5,468.833 575.5,470.167 575.5,471.5C 576.978,471.238 578.311,471.571 579.5,472.5C 574.167,473.833 574.167,475.167 579.5,476.5C 578.5,477.167 577.5,477.833 576.5,478.5C 580.061,479.761 583.728,480.594 587.5,481C 588.667,482.167 589.833,483.333 591,484.5C 592.356,483.62 593.856,483.286 595.5,483.5C 595.534,487.63 596.201,491.63 597.5,495.5C 600.807,495.063 603.807,495.73 606.5,497.5C 609.069,502.468 610.069,507.801 609.5,513.5 Z"/></g>
<g><path style="opacity:1" fill="#3a7eca" d="M 420.5,462.5 C 422.207,465.27 423.54,468.27 424.5,471.5C 427.106,473.418 428.106,476.084 427.5,479.5C 428.833,479.5 430.167,479.5 431.5,479.5C 431.5,480.833 431.5,482.167 431.5,483.5C 432.833,483.5 434.167,483.5 435.5,483.5C 435.5,484.833 435.5,486.167 435.5,487.5C 437.36,486.929 439.027,486.929 440.5,487.5C 435.105,491.563 430.771,496.563 427.5,502.5C 425.53,505.328 423.697,508.328 422,511.5C 420.769,515.704 419.269,519.704 417.5,523.5C 417.5,516.167 417.5,508.833 417.5,501.5C 417.014,488.74 417.68,476.073 419.5,463.5C 419.5,462.833 419.833,462.5 420.5,462.5 Z"/></g>
<g><path style="opacity:1" fill="#3569b2" d="M 419.5,463.5 C 417.68,476.073 417.014,488.74 417.5,501.5C 416.602,495.417 415.602,489.25 414.5,483C 415.337,481.989 415.67,480.822 415.5,479.5C 412.938,480.371 410.272,480.371 407.5,479.5C 407.5,476.833 407.5,474.167 407.5,471.5C 403.71,470.899 400.544,471.899 398,474.5C 397.667,473.833 397.333,473.167 397,472.5C 393.956,475.375 391.123,478.375 388.5,481.5C 386.962,483.243 385.962,485.243 385.5,487.5C 382.142,492.23 380.142,497.563 379.5,503.5C 379.167,503.5 378.833,503.5 378.5,503.5C 378.5,490.167 378.5,476.833 378.5,463.5C 379.167,463.5 379.833,463.5 380.5,463.5C 381.5,463.5 382.5,463.5 383.5,463.5C 383.5,466.167 383.5,468.833 383.5,471.5C 384.833,471.5 386.167,471.5 387.5,471.5C 387.338,473.527 387.505,475.527 388,477.5C 388.414,477.957 388.914,478.291 389.5,478.5C 390.19,476.535 390.857,474.202 391.5,471.5C 393.924,471.808 396.257,471.474 398.5,470.5C 399.707,468.459 401.374,467.126 403.5,466.5C 407.753,463.789 412.253,461.456 417,459.5C 417.337,461.073 418.171,462.406 419.5,463.5 Z"/></g>
<g><path style="opacity:1" fill="#326cae" d="M 471.5,473.5 C 471.804,474.15 472.137,474.817 472.5,475.5C 469.357,477.711 467.69,480.711 467.5,484.5C 465.819,487.203 464.153,489.869 462.5,492.5C 461.962,490.883 461.629,489.216 461.5,487.5C 460.167,487.5 458.833,487.5 457.5,487.5C 456.833,492.833 456.167,492.833 455.5,487.5C 451.567,488.143 448.234,487.143 445.5,484.5C 447.884,482.115 450.55,480.115 453.5,478.5C 459.173,475.913 465.173,474.247 471.5,473.5 Z"/></g>
<g><path style="opacity:1" fill="#2a5caa" d="M 417.5,501.5 C 417.5,508.833 417.5,516.167 417.5,523.5C 417.5,524.167 417.5,524.833 417.5,525.5C 416.714,522.157 415.714,518.823 414.5,515.5C 413.5,515.5 412.5,515.5 411.5,515.5C 411.5,514.167 411.5,512.833 411.5,511.5C 410.448,511.649 409.448,511.483 408.5,511C 409.591,508.936 409.758,506.769 409,504.5C 408.086,508.185 407.419,507.852 407,503.5C 406.667,504.833 406.333,506.167 406,507.5C 404.471,503.983 403.471,500.317 403,496.5C 400.619,495.565 398.119,495.232 395.5,495.5C 395.5,494.167 395.5,492.833 395.5,491.5C 391.094,492.259 387.761,490.925 385.5,487.5C 385.962,485.243 386.962,483.243 388.5,481.5C 391.123,478.375 393.956,475.375 397,472.5C 397.333,473.167 397.667,473.833 398,474.5C 400.544,471.899 403.71,470.899 407.5,471.5C 407.5,474.167 407.5,476.833 407.5,479.5C 410.272,480.371 412.938,480.371 415.5,479.5C 415.67,480.822 415.337,481.989 414.5,483C 415.602,489.25 416.602,495.417 417.5,501.5 Z"/></g>
<g><path style="opacity:1" fill="#2e66b2" d="M 445.5,484.5 C 448.234,487.143 451.567,488.143 455.5,487.5C 456.167,492.833 456.833,492.833 457.5,487.5C 458.833,487.5 460.167,487.5 461.5,487.5C 461.629,489.216 461.962,490.883 462.5,492.5C 459.978,492.128 457.978,492.961 456.5,495C 458.993,498.308 459.159,501.808 457,505.5C 456.5,512.492 456.334,519.492 456.5,526.5C 455.661,520.325 454.994,513.992 454.5,507.5C 452.167,507.5 449.833,507.5 447.5,507.5C 447.5,511.167 447.5,514.833 447.5,518.5C 444.167,518.5 440.833,518.5 437.5,518.5C 437.663,516.143 437.497,513.81 437,511.5C 435.619,509.365 434.619,507.032 434,504.5C 431.913,503.603 429.746,502.936 427.5,502.5C 430.771,496.563 435.105,491.563 440.5,487.5C 441.922,486.075 443.589,485.075 445.5,484.5 Z"/></g>
<g><path style="opacity:1" fill="#b6d2e4" d="M 610.5,483.5 C 612.213,487.115 613.546,490.949 614.5,495C 613.978,495.561 613.645,496.228 613.5,497C 615.706,498.25 617.039,500.084 617.5,502.5C 619.492,502.328 621.158,502.995 622.5,504.5C 624.071,503.691 625.738,503.357 627.5,503.5C 627.5,506.167 627.5,508.833 627.5,511.5C 628.833,511.5 630.167,511.5 631.5,511.5C 631.5,512.833 631.5,514.167 631.5,515.5C 632.833,515.5 634.167,515.5 635.5,515.5C 635.5,516.833 635.5,518.167 635.5,519.5C 638.167,519.5 640.833,519.5 643.5,519.5C 643.5,520.5 643.5,521.5 643.5,522.5C 644.833,522.5 646.167,522.5 647.5,522.5C 649.102,531.109 649.768,544.443 649.5,562.5C 644.853,562.429 641.353,560.429 639,556.5C 638.692,557.308 638.192,557.975 637.5,558.5C 636.386,557.277 636.219,555.944 637,554.5C 641.424,550.347 642.591,545.347 640.5,539.5C 638.345,533.577 634.011,530.911 627.5,531.5C 627.5,530.167 627.5,528.833 627.5,527.5C 624.833,527.5 622.167,527.5 619.5,527.5C 619.759,524.52 618.426,522.687 615.5,522C 619.98,521.707 620.313,520.874 616.5,519.5C 615.59,517.345 614.423,515.345 613,513.5C 612.25,507.341 611.417,501.341 610.5,495.5C 610.5,491.5 610.5,487.5 610.5,483.5 Z"/></g>
<g><path style="opacity:1" fill="#2f65b8" d="M 427.5,502.5 C 429.746,502.936 431.913,503.603 434,504.5C 434.619,507.032 435.619,509.365 437,511.5C 437.497,513.81 437.663,516.143 437.5,518.5C 440.833,518.5 444.167,518.5 447.5,518.5C 447.5,514.833 447.5,511.167 447.5,507.5C 449.833,507.5 452.167,507.5 454.5,507.5C 454.994,513.992 455.661,520.325 456.5,526.5C 457.525,532.247 459.525,537.58 462.5,542.5C 460.99,541.272 459.49,541.272 458,542.5C 456.587,540.348 455.754,538.014 455.5,535.5C 448.5,537.167 445.833,534.5 447.5,527.5C 444.833,527.5 442.167,527.5 439.5,527.5C 439.813,530.247 439.48,532.914 438.5,535.5C 437.833,530.5 437.167,525.5 436.5,520.5C 435.833,522.5 435.167,524.5 434.5,526.5C 434.062,523.705 433.062,521.372 431.5,519.5C 429.143,519.337 426.81,519.503 424.5,520C 423.663,521.011 423.33,522.178 423.5,523.5C 422.167,523.5 420.833,523.5 419.5,523.5C 419.771,525.38 419.104,526.713 417.5,527.5C 417.5,526.833 417.5,526.167 417.5,525.5C 417.5,524.833 417.5,524.167 417.5,523.5C 419.269,519.704 420.769,515.704 422,511.5C 423.697,508.328 425.53,505.328 427.5,502.5 Z"/></g>
<g><path style="opacity:1" fill="#68a8cc" d="M 608.5,513.5 C 605.697,519.106 602.864,524.773 600,530.5C 599.292,531.381 598.458,532.047 597.5,532.5C 593.618,526.519 588.951,521.019 583.5,516C 579.848,515.501 576.182,515.335 572.5,515.5C 572.5,514.167 572.5,512.833 572.5,511.5C 573.5,511.5 574.5,511.5 575.5,511.5C 575.726,508.751 575.393,506.084 574.5,503.5C 573.624,502.749 572.624,502.249 571.5,502C 571.07,501.08 570.736,500.247 570.5,499.5C 570.167,500.167 569.833,500.833 569.5,501.5C 571.996,510.778 572.163,520.112 570,529.5C 569.722,530.416 569.222,531.082 568.5,531.5C 571.085,516.605 569.418,502.272 563.5,488.5C 562.167,484.167 560.833,479.833 559.5,475.5C 560.833,475.5 562.167,475.5 563.5,475.5C 563.148,478.073 563.648,480.406 565,482.5C 565.249,481.376 565.749,480.376 566.5,479.5C 568.719,482.574 571.719,483.907 575.5,483.5C 575.5,484.833 575.5,486.167 575.5,487.5C 580.698,487.857 584.198,490.524 586,495.5C 586.333,495.167 586.667,494.833 587,494.5C 588.373,497.412 589.873,500.246 591.5,503C 594.063,504.079 596.729,504.579 599.5,504.5C 599.36,506.124 600.027,507.29 601.5,508C 603.769,508.758 605.936,508.591 608,507.5C 608.495,509.473 608.662,511.473 608.5,513.5 Z"/></g>
<g><path style="opacity:1" fill="#2350a4" d="M 385.5,487.5 C 387.761,490.925 391.094,492.259 395.5,491.5C 395.5,492.833 395.5,494.167 395.5,495.5C 398.119,495.232 400.619,495.565 403,496.5C 403.471,500.317 404.471,503.983 406,507.5C 406.333,506.167 406.667,504.833 407,503.5C 407.419,507.852 408.086,508.185 409,504.5C 409.758,506.769 409.591,508.936 408.5,511C 409.448,511.483 410.448,511.649 411.5,511.5C 411.5,512.833 411.5,514.167 411.5,515.5C 412.5,515.5 413.5,515.5 414.5,515.5C 415.714,518.823 416.714,522.157 417.5,525.5C 417.5,526.167 417.5,526.833 417.5,527.5C 417.5,533.167 417.5,538.833 417.5,544.5C 417.5,548.167 417.5,551.833 417.5,555.5C 416.676,551.688 416.176,547.688 416,543.5C 415.667,543.833 415.333,544.167 415,544.5C 412.667,543.833 410.333,543.167 408,542.5C 407.501,538.848 407.335,535.182 407.5,531.5C 406.167,531.5 404.833,531.5 403.5,531.5C 403.5,530.167 403.5,528.833 403.5,527.5C 400.833,527.5 398.167,527.5 395.5,527.5C 395.5,526.167 395.5,524.833 395.5,523.5C 388.57,522.542 385.904,518.542 387.5,511.5C 384.833,511.5 382.167,511.5 379.5,511.5C 379.5,508.833 379.5,506.167 379.5,503.5C 380.142,497.563 382.142,492.23 385.5,487.5 Z"/></g>
<g><path style="opacity:1" fill="#426da7" d="M 462.5,492.5 C 456.235,511.053 457.568,529.053 466.5,546.5C 464.5,545.833 463.167,544.5 462.5,542.5C 459.525,537.58 457.525,532.247 456.5,526.5C 456.334,519.492 456.5,512.492 457,505.5C 459.159,501.808 458.993,498.308 456.5,495C 457.978,492.961 459.978,492.128 462.5,492.5 Z"/></g>
<g><path style="opacity:1" fill="#accadf" d="M 610.5,495.5 C 611.417,501.341 612.25,507.341 613,513.5C 614.423,515.345 615.59,517.345 616.5,519.5C 620.313,520.874 619.98,521.707 615.5,522C 618.426,522.687 619.759,524.52 619.5,527.5C 622.167,527.5 624.833,527.5 627.5,527.5C 627.5,528.833 627.5,530.167 627.5,531.5C 634.011,530.911 638.345,533.577 640.5,539.5C 642.591,545.347 641.424,550.347 637,554.5C 636.219,555.944 636.386,557.277 637.5,558.5C 638.192,557.975 638.692,557.308 639,556.5C 641.353,560.429 644.853,562.429 649.5,562.5C 649.216,564.415 649.549,566.081 650.5,567.5C 650.5,575.5 650.5,583.5 650.5,591.5C 650.435,594.428 649.768,597.095 648.5,599.5C 648.18,596.048 648.18,592.715 648.5,589.5C 647.69,586.074 646.69,582.741 645.5,579.5C 644.167,579.5 642.833,579.5 641.5,579.5C 641.5,578.167 641.5,576.833 641.5,575.5C 635.175,575.848 631.509,572.848 630.5,566.5C 629.914,566.709 629.414,567.043 629,567.5C 628.333,566.167 628.333,564.833 629,563.5C 633.038,560.419 635.205,556.419 635.5,551.5C 634.167,551.5 632.833,551.5 631.5,551.5C 631.5,550.167 631.5,548.833 631.5,547.5C 630.167,547.5 628.833,547.5 627.5,547.5C 628.244,544.05 626.91,542.384 623.5,542.5C 623.5,540.167 623.5,537.833 623.5,535.5C 619.099,536.13 615.432,534.797 612.5,531.5C 611.833,523.343 611.167,515.343 610.5,507.5C 610.5,504.167 610.5,500.833 610.5,497.5C 610.5,496.833 610.5,496.167 610.5,495.5 Z"/></g>
<g><path style="opacity:1" fill="#1d429c" d="M 417.5,559.5 C 419.159,564.796 420.826,570.129 422.5,575.5C 412.086,573.603 403.086,568.437 395.5,560C 391.467,559.305 387.467,558.472 383.5,557.5C 382.787,555.224 382.287,552.891 382,550.5C 380.939,553.166 380.106,555.833 379.5,558.5C 379.333,547.162 379.5,535.828 380,524.5C 385.468,526.235 390.134,529.235 394,533.5C 395.128,535.345 395.628,537.345 395.5,539.5C 396.833,539.5 398.167,539.5 399.5,539.5C 399.5,540.833 399.5,542.167 399.5,543.5C 400.833,543.5 402.167,543.5 403.5,543.5C 402.687,549.82 405.354,552.487 411.5,551.5C 411.353,555.536 412.853,558.869 416,561.5C 416.278,560.584 416.778,559.918 417.5,559.5 Z"/></g>
<g><path style="opacity:1" fill="#2d5fc2" d="M 463.5,609.5 C 462.833,609.5 462.167,609.5 461.5,609.5C 450.017,605.835 440.183,599.502 432,590.5C 428.369,585.742 425.203,580.742 422.5,575.5C 420.826,570.129 419.159,564.796 417.5,559.5C 417.5,558.167 417.5,556.833 417.5,555.5C 417.5,551.833 417.5,548.167 417.5,544.5C 418.222,544.082 418.722,543.416 419,542.5C 420,522.5 421,522.5 422,542.5C 424.719,543.444 427.552,543.777 430.5,543.5C 431.089,548.481 431.589,553.481 432,558.5C 435.876,562.671 440.376,565.671 445.5,567.5C 445.337,569.857 445.503,572.19 446,574.5C 447.699,575.406 449.533,575.739 451.5,575.5C 451.5,578.167 451.5,580.833 451.5,583.5C 449.5,583.5 447.5,583.5 445.5,583.5C 445.5,586.167 445.5,588.833 445.5,591.5C 452.757,591.303 459.757,591.136 466.5,591C 467.464,595.066 467.797,599.233 467.5,603.5C 469.5,603.5 471.5,603.5 473.5,603.5C 473.822,605.722 473.155,607.556 471.5,609C 468.854,609.497 466.187,609.664 463.5,609.5 Z"/></g>
<g><path style="opacity:1" fill="#579bc4" d="M 597.5,532.5 C 595.213,536.122 592.547,539.455 589.5,542.5C 586.971,544.265 584.638,546.265 582.5,548.5C 580.55,549.372 578.55,550.039 576.5,550.5C 576.353,545.653 576.019,540.653 575.5,535.5C 573.143,535.337 570.81,535.503 568.5,536C 566.345,541.168 563.345,545.668 559.5,549.5C 563.047,543.74 566.047,537.74 568.5,531.5C 569.222,531.082 569.722,530.416 570,529.5C 572.163,520.112 571.996,510.778 569.5,501.5C 569.833,500.833 570.167,500.167 570.5,499.5C 570.736,500.247 571.07,501.08 571.5,502C 572.624,502.249 573.624,502.749 574.5,503.5C 575.393,506.084 575.726,508.751 575.5,511.5C 574.5,511.5 573.5,511.5 572.5,511.5C 572.5,512.833 572.5,514.167 572.5,515.5C 576.182,515.335 579.848,515.501 583.5,516C 588.951,521.019 593.618,526.519 597.5,532.5 Z"/></g>
<g><path style="opacity:1" fill="#1f479e" d="M 378.5,503.5 C 378.833,503.5 379.167,503.5 379.5,503.5C 379.5,506.167 379.5,508.833 379.5,511.5C 382.167,511.5 384.833,511.5 387.5,511.5C 385.904,518.542 388.57,522.542 395.5,523.5C 395.5,524.833 395.5,526.167 395.5,527.5C 398.167,527.5 400.833,527.5 403.5,527.5C 403.5,528.833 403.5,530.167 403.5,531.5C 404.833,531.5 406.167,531.5 407.5,531.5C 407.335,535.182 407.501,538.848 408,542.5C 410.333,543.167 412.667,543.833 415,544.5C 415.333,544.167 415.667,543.833 416,543.5C 416.176,547.688 416.676,551.688 417.5,555.5C 417.5,556.833 417.5,558.167 417.5,559.5C 416.778,559.918 416.278,560.584 416,561.5C 412.853,558.869 411.353,555.536 411.5,551.5C 405.354,552.487 402.687,549.82 403.5,543.5C 402.167,543.5 400.833,543.5 399.5,543.5C 399.5,542.167 399.5,540.833 399.5,539.5C 398.167,539.5 396.833,539.5 395.5,539.5C 395.628,537.345 395.128,535.345 394,533.5C 390.134,529.235 385.468,526.235 380,524.5C 379.5,535.828 379.333,547.162 379.5,558.5C 379.172,569.014 379.506,579.347 380.5,589.5C 380.5,593.167 380.5,596.833 380.5,600.5C 380.167,600.5 379.833,600.5 379.5,600.5C 379.058,596.846 378.724,593.179 378.5,589.5C 378.5,560.833 378.5,532.167 378.5,503.5 Z"/></g>
<g><path style="opacity:1" fill="#2e63c1" d="M 431.5,519.5 C 431.5,522.167 431.5,524.833 431.5,527.5C 430.178,527.33 429.011,527.663 428,528.5C 427.503,530.81 427.337,533.143 427.5,535.5C 428.822,535.33 429.989,535.663 431,536.5C 431.497,538.81 431.663,541.143 431.5,543.5C 434.119,543.232 436.619,543.565 439,544.5C 439.499,549.489 439.666,554.489 439.5,559.5C 444.511,559.334 449.511,559.501 454.5,560C 455.435,562.381 455.768,564.881 455.5,567.5C 456.833,567.5 458.167,567.5 459.5,567.5C 458.738,574.54 459.738,581.207 462.5,587.5C 463.429,586.311 463.762,584.978 463.5,583.5C 467.5,583.5 471.5,583.5 475.5,583.5C 475.5,584.833 475.5,586.167 475.5,587.5C 476.833,587.5 478.167,587.5 479.5,587.5C 479.5,588.833 479.5,590.167 479.5,591.5C 481.124,591.64 482.29,590.973 483,589.5C 483.495,591.473 483.662,593.473 483.5,595.5C 482.167,595.5 480.833,595.5 479.5,595.5C 479.5,596.833 479.5,598.167 479.5,599.5C 478.167,599.5 476.833,599.5 475.5,599.5C 475.5,602.5 475.5,605.5 475.5,608.5C 476.675,608.281 477.675,608.614 478.5,609.5C 475.358,610.167 472.358,610.834 469.5,611.5C 467.102,611.741 465.102,611.074 463.5,609.5C 466.187,609.664 468.854,609.497 471.5,609C 473.155,607.556 473.822,605.722 473.5,603.5C 471.5,603.5 469.5,603.5 467.5,603.5C 467.797,599.233 467.464,595.066 466.5,591C 459.757,591.136 452.757,591.303 445.5,591.5C 445.5,588.833 445.5,586.167 445.5,583.5C 447.5,583.5 449.5,583.5 451.5,583.5C 451.5,580.833 451.5,578.167 451.5,575.5C 449.533,575.739 447.699,575.406 446,574.5C 445.503,572.19 445.337,569.857 445.5,567.5C 440.376,565.671 435.876,562.671 432,558.5C 431.589,553.481 431.089,548.481 430.5,543.5C 427.552,543.777 424.719,543.444 422,542.5C 421,522.5 420,522.5 419,542.5C 418.722,543.416 418.222,544.082 417.5,544.5C 417.5,538.833 417.5,533.167 417.5,527.5C 419.104,526.713 419.771,525.38 419.5,523.5C 420.833,523.5 422.167,523.5 423.5,523.5C 423.33,522.178 423.663,521.011 424.5,520C 426.81,519.503 429.143,519.337 431.5,519.5 Z"/></g>
<g><path style="opacity:1" fill="#67add5" d="M 608.5,513.5 C 608.833,513.5 609.167,513.5 609.5,513.5C 609.175,521.019 609.508,528.352 610.5,535.5C 610.5,535.833 610.5,536.167 610.5,536.5C 610.666,544.507 610.5,552.507 610,560.5C 609.342,564.445 608.175,568.112 606.5,571.5C 607.112,567.837 607.279,564.17 607,560.5C 604.619,559.565 602.119,559.232 599.5,559.5C 599.5,556.833 599.5,554.167 599.5,551.5C 598.167,551.5 596.833,551.5 595.5,551.5C 595.5,550.167 595.5,548.833 595.5,547.5C 594.167,547.5 592.833,547.5 591.5,547.5C 591.66,545.801 591.494,544.134 591,542.5C 590.31,543.738 589.81,543.738 589.5,542.5C 592.547,539.455 595.213,536.122 597.5,532.5C 598.458,532.047 599.292,531.381 600,530.5C 602.864,524.773 605.697,519.106 608.5,513.5 Z"/></g>
<g><path style="opacity:1" fill="#3067c0" d="M 431.5,519.5 C 433.062,521.372 434.062,523.705 434.5,526.5C 435.167,524.5 435.833,522.5 436.5,520.5C 437.167,525.5 437.833,530.5 438.5,535.5C 439.48,532.914 439.813,530.247 439.5,527.5C 442.167,527.5 444.833,527.5 447.5,527.5C 445.833,534.5 448.5,537.167 455.5,535.5C 455.754,538.014 456.587,540.348 458,542.5C 459.49,541.272 460.99,541.272 462.5,542.5C 463.167,544.5 464.5,545.833 466.5,546.5C 466.5,548.167 466.5,549.833 466.5,551.5C 468.124,551.36 469.29,552.027 470,553.5C 470.837,559.532 471.837,565.532 473,571.5C 477.58,577.66 481.914,583.993 486,590.5C 493.344,599.026 502.177,605.359 512.5,609.5C 512.082,610.222 511.416,610.722 510.5,611C 511.056,611.383 511.389,611.883 511.5,612.5C 510.5,612.5 509.5,612.5 508.5,612.5C 504.167,612.5 499.833,612.5 495.5,612.5C 486.779,612.775 478.113,612.442 469.5,611.5C 472.358,610.834 475.358,610.167 478.5,609.5C 477.675,608.614 476.675,608.281 475.5,608.5C 475.5,605.5 475.5,602.5 475.5,599.5C 476.833,599.5 478.167,599.5 479.5,599.5C 479.5,598.167 479.5,596.833 479.5,595.5C 480.833,595.5 482.167,595.5 483.5,595.5C 483.662,593.473 483.495,591.473 483,589.5C 482.29,590.973 481.124,591.64 479.5,591.5C 479.5,590.167 479.5,588.833 479.5,587.5C 478.167,587.5 476.833,587.5 475.5,587.5C 475.5,586.167 475.5,584.833 475.5,583.5C 471.5,583.5 467.5,583.5 463.5,583.5C 463.762,584.978 463.429,586.311 462.5,587.5C 459.738,581.207 458.738,574.54 459.5,567.5C 458.167,567.5 456.833,567.5 455.5,567.5C 455.768,564.881 455.435,562.381 454.5,560C 449.511,559.501 444.511,559.334 439.5,559.5C 439.666,554.489 439.499,549.489 439,544.5C 436.619,543.565 434.119,543.232 431.5,543.5C 431.663,541.143 431.497,538.81 431,536.5C 429.989,535.663 428.822,535.33 427.5,535.5C 427.337,533.143 427.503,530.81 428,528.5C 429.011,527.663 430.178,527.33 431.5,527.5C 431.5,524.833 431.5,522.167 431.5,519.5 Z"/></g>
<g><path style="opacity:1" fill="#54a0ce" d="M 589.5,542.5 C 589.81,543.738 590.31,543.738 591,542.5C 591.494,544.134 591.66,545.801 591.5,547.5C 592.833,547.5 594.167,547.5 595.5,547.5C 595.5,548.833 595.5,550.167 595.5,551.5C 596.833,551.5 598.167,551.5 599.5,551.5C 599.5,554.167 599.5,556.833 599.5,559.5C 602.119,559.232 604.619,559.565 607,560.5C 607.279,564.17 607.112,567.837 606.5,571.5C 604.361,577.112 601.694,582.446 598.5,587.5C 597.272,588.306 596.272,589.306 595.5,590.5C 597.869,585.494 596.536,582.328 591.5,581C 589.372,577.87 586.872,575.037 584,572.5C 584.097,568.626 582.264,566.459 578.5,566C 576.438,564.468 575.104,562.468 574.5,560C 573.552,559.517 572.552,559.351 571.5,559.5C 571.773,557.549 571.107,556.049 569.5,555C 572.547,554.484 574.88,552.984 576.5,550.5C 578.55,550.039 580.55,549.372 582.5,548.5C 584.638,546.265 586.971,544.265 589.5,542.5 Z"/></g>
<g><path style="opacity:1" fill="#4390c6" d="M 591.5,594.5 C 591.5,594.833 591.5,595.167 591.5,595.5C 590.5,596.167 589.5,596.833 588.5,597.5C 587.659,595.621 587.325,593.621 587.5,591.5C 583.129,591.093 579.129,589.76 575.5,587.5C 575.5,586.167 575.5,584.833 575.5,583.5C 574.167,583.5 572.833,583.5 571.5,583.5C 571.5,582.167 571.5,580.833 571.5,579.5C 570.167,579.5 568.833,579.5 567.5,579.5C 567.5,578.167 567.5,576.833 567.5,575.5C 566.167,575.5 564.833,575.5 563.5,575.5C 563.5,574.167 563.5,572.833 563.5,571.5C 560.781,571.397 558.115,571.731 555.5,572.5C 553.02,571.693 551.687,570.026 551.5,567.5C 546.448,567.479 541.448,567.479 536.5,567.5C 540.492,565.17 544.492,562.837 548.5,560.5C 553.889,558.194 559.556,556.527 565.5,555.5C 567.891,556.191 567.891,557.191 565.5,558.5C 566.765,561.553 568.598,564.22 571,566.5C 571.494,568.134 571.66,569.801 571.5,571.5C 572.833,571.5 574.167,571.5 575.5,571.5C 575.5,572.833 575.5,574.167 575.5,575.5C 576.873,575.343 578.207,575.51 579.5,576C 582.113,578.123 584.446,580.456 586.5,583C 587.766,583.309 588.933,583.809 590,584.5C 590.21,587.234 591.044,589.734 592.5,592C 591.748,592.671 591.414,593.504 591.5,594.5 Z"/></g>
<g><path style="opacity:1" fill="#4894c6" d="M 576.5,550.5 C 574.88,552.984 572.547,554.484 569.5,555C 571.107,556.049 571.773,557.549 571.5,559.5C 572.552,559.351 573.552,559.517 574.5,560C 575.104,562.468 576.438,564.468 578.5,566C 582.264,566.459 584.097,568.626 584,572.5C 586.872,575.037 589.372,577.87 591.5,581C 596.536,582.328 597.869,585.494 595.5,590.5C 594.5,592.167 593.167,593.5 591.5,594.5C 591.414,593.504 591.748,592.671 592.5,592C 591.044,589.734 590.21,587.234 590,584.5C 588.933,583.809 587.766,583.309 586.5,583C 584.446,580.456 582.113,578.123 579.5,576C 578.207,575.51 576.873,575.343 575.5,575.5C 575.5,574.167 575.5,572.833 575.5,571.5C 574.167,571.5 572.833,571.5 571.5,571.5C 571.66,569.801 571.494,568.134 571,566.5C 568.598,564.22 566.765,561.553 565.5,558.5C 567.891,557.191 567.891,556.191 565.5,555.5C 559.556,556.527 553.889,558.194 548.5,560.5C 552.5,557.167 556.167,553.5 559.5,549.5C 563.345,545.668 566.345,541.168 568.5,536C 570.81,535.503 573.143,535.337 575.5,535.5C 576.019,540.653 576.353,545.653 576.5,550.5 Z"/></g>
<g><path style="opacity:1" fill="#397fbe" d="M 575.5,605.5 C 574.833,606.167 574.167,606.833 573.5,607.5C 571.952,612.424 569.619,617.09 566.5,621.5C 565.504,621.414 564.671,621.748 564,622.5C 562.587,620.348 561.754,618.014 561.5,615.5C 556.109,615.649 555.442,614.149 559.5,611C 561.608,610.64 563.608,609.973 565.5,609C 562.86,605.857 560.527,602.524 558.5,599C 559.119,597.165 559.286,594.999 559,592.5C 555.27,591.54 551.437,591.207 547.5,591.5C 547.5,590.167 547.5,588.833 547.5,587.5C 546.167,587.5 544.833,587.5 543.5,587.5C 543.785,585.712 543.452,584.045 542.5,582.5C 538.141,580.179 534.474,577.179 531.5,573.5C 531.5,572.833 531.5,572.167 531.5,571.5C 534.255,570.656 536.921,569.656 539.5,568.5C 539.5,569.5 539.5,570.5 539.5,571.5C 541.5,571.5 543.5,571.5 545.5,571.5C 545.44,575.485 547.44,577.152 551.5,576.5C 551.5,577.5 551.5,578.5 551.5,579.5C 552.833,579.5 554.167,579.5 555.5,579.5C 555.5,580.833 555.5,582.167 555.5,583.5C 556.833,583.5 558.167,583.5 559.5,583.5C 559.5,584.833 559.5,586.167 559.5,587.5C 560.5,587.5 561.5,587.5 562.5,587.5C 562.523,589.927 563.023,592.26 564,594.5C 565.011,595.337 566.178,595.67 567.5,595.5C 567.955,597.367 568.622,599.2 569.5,601C 568.668,603.478 568.501,605.978 569,608.5C 570.508,606.162 572.675,605.162 575.5,605.5 Z"/></g>
<g><path style="opacity:1" fill="#1e41a4" d="M 461.5,652.5 C 450.339,652.53 439.339,651.863 428.5,650.5C 420.545,649.021 413.545,645.688 407.5,640.5C 415.285,644.039 423.452,646.706 432,648.5C 432.873,648.265 433.707,647.931 434.5,647.5C 435.48,644.914 435.813,642.247 435.5,639.5C 436.833,639.5 438.167,639.5 439.5,639.5C 439.5,638.167 439.5,636.833 439.5,635.5C 438.167,635.5 436.833,635.5 435.5,635.5C 435.5,632.833 435.5,630.167 435.5,627.5C 434.167,627.5 432.833,627.5 431.5,627.5C 431.5,626.167 431.5,624.833 431.5,623.5C 429.801,623.66 428.134,623.494 426.5,623C 424.502,618.823 421.169,616.323 416.5,615.5C 415.52,612.914 415.187,610.247 415.5,607.5C 412.833,607.5 410.167,607.5 407.5,607.5C 407.5,606.167 407.5,604.833 407.5,603.5C 406.167,603.5 404.833,603.5 403.5,603.5C 403.5,602.167 403.5,600.833 403.5,599.5C 400.833,599.5 398.167,599.5 395.5,599.5C 395.5,596.833 395.5,594.167 395.5,591.5C 394.167,591.5 392.833,591.5 391.5,591.5C 391.5,590.167 391.5,588.833 391.5,587.5C 388.833,587.5 386.167,587.5 383.5,587.5C 383.5,586.167 383.5,584.833 383.5,583.5C 382.5,583.5 381.5,583.5 380.5,583.5C 380.5,578.167 380.5,572.833 380.5,567.5C 381.5,567.5 382.5,567.5 383.5,567.5C 383.5,568.833 383.5,570.167 383.5,571.5C 386.167,571.5 388.833,571.5 391.5,571.5C 391.5,572.833 391.5,574.167 391.5,575.5C 394.167,575.5 396.833,575.5 399.5,575.5C 399.5,577.167 399.5,578.833 399.5,580.5C 400.833,580.5 402.167,580.5 403.5,580.5C 403.5,581.5 403.5,582.5 403.5,583.5C 404.833,583.5 406.167,583.5 407.5,583.5C 407.5,585.833 407.5,588.167 407.5,590.5C 410.119,590.232 412.619,590.565 415,591.5C 415.497,594.146 415.664,596.813 415.5,599.5C 418.167,599.5 420.833,599.5 423.5,599.5C 423.5,602.167 423.5,604.833 423.5,607.5C 426.167,607.5 428.833,607.5 431.5,607.5C 431.5,610.167 431.5,612.833 431.5,615.5C 434.167,615.5 436.833,615.5 439.5,615.5C 439.5,616.833 439.5,618.167 439.5,619.5C 440.833,619.5 442.167,619.5 443.5,619.5C 443.5,620.833 443.5,622.167 443.5,623.5C 444.833,623.5 446.167,623.5 447.5,623.5C 447.5,626.167 447.5,628.833 447.5,631.5C 448.833,631.5 450.167,631.5 451.5,631.5C 451.5,632.833 451.5,634.167 451.5,635.5C 454.167,635.5 456.833,635.5 459.5,635.5C 459.917,638.343 460.917,641.01 462.5,643.5C 463.167,641.5 463.833,639.5 464.5,637.5C 466.329,639.156 467.663,641.156 468.5,643.5C 469.231,639.828 470.731,639.161 473,641.5C 473.311,642.742 472.811,643.742 471.5,644.5C 472.025,645.192 472.692,645.692 473.5,646C 471.715,647.163 469.715,647.83 467.5,648C 471.084,649.073 474.75,649.74 478.5,650C 472.669,650.71 467.002,651.543 461.5,652.5 Z"/></g>
<g><path style="opacity:1" fill="#2d66b1" d="M 485.5,564.5 C 488.907,566.181 492.241,567.847 495.5,569.5C 500.513,572.064 505.846,574.064 511.5,575.5C 512.777,578.034 512.777,580.534 511.5,583C 514.146,583.497 516.813,583.664 519.5,583.5C 519.5,586.167 519.5,588.833 519.5,591.5C 520.833,591.5 522.167,591.5 523.5,591.5C 524.084,596.414 526.751,599.414 531.5,600.5C 531.5,602.5 531.5,604.5 531.5,606.5C 534.187,606.336 536.854,606.503 539.5,607C 535.544,608.114 535.544,608.947 539.5,609.5C 539.5,610.5 539.5,611.5 539.5,612.5C 536.68,612.248 534.014,612.748 531.5,614C 533.569,614.324 533.902,615.158 532.5,616.5C 534.559,617.951 535.559,619.951 535.5,622.5C 537.099,622.232 538.432,622.566 539.5,623.5C 535.867,623.443 535.7,624.443 539,626.5C 539.667,627.5 539.667,628.5 539,629.5C 534.941,626.46 532.108,622.626 530.5,618C 529.584,617.626 528.75,617.126 528,616.5C 528.1,621.651 526.266,622.651 522.5,619.5C 519.514,617.188 519.848,615.521 523.5,614.5C 519.68,612.855 515.68,612.189 511.5,612.5C 511.389,611.883 511.056,611.383 510.5,611C 511.416,610.722 512.082,610.222 512.5,609.5C 518.782,611.031 525.116,611.864 531.5,612C 528.683,609.683 526.016,607.183 523.5,604.5C 522.311,603.571 520.978,603.238 519.5,603.5C 519.719,604.675 519.386,605.675 518.5,606.5C 516.659,604.488 515.659,602.155 515.5,599.5C 514.178,599.67 513.011,599.337 512,598.5C 511.055,593.291 509.555,588.291 507.5,583.5C 506.167,583.5 504.833,583.5 503.5,583.5C 503.72,580.6 503.054,577.933 501.5,575.5C 500.5,576.833 499.5,576.833 498.5,575.5C 497.614,576.325 497.281,577.325 497.5,578.5C 494.916,578.431 492.916,577.265 491.5,575C 493.971,572.669 493.638,570.503 490.5,568.5C 489.757,569.908 488.923,571.241 488,572.5C 486.731,570.007 485.898,567.34 485.5,564.5 Z"/></g>
<g><path style="opacity:1" fill="#2147a7" d="M 422.5,575.5 C 425.203,580.742 428.369,585.742 432,590.5C 440.183,599.502 450.017,605.835 461.5,609.5C 459.502,610.148 457.502,610.981 455.5,612C 457.853,615.442 459.02,619.275 459,623.5C 460.604,624.649 462.27,624.649 464,623.5C 467.049,626.966 470.882,628.299 475.5,627.5C 476.161,631.785 477.494,635.785 479.5,639.5C 480.833,639.5 482.167,639.5 483.5,639.5C 483.859,641.766 483.192,643.599 481.5,645C 482.328,645.915 483.328,646.581 484.5,647C 484.167,647.333 483.833,647.667 483.5,648C 487.353,647.063 491.02,647.73 494.5,650C 492.754,650.471 491.087,651.138 489.5,652C 480.173,652.5 470.839,652.666 461.5,652.5C 467.002,651.543 472.669,650.71 478.5,650C 474.75,649.74 471.084,649.073 467.5,648C 469.715,647.83 471.715,647.163 473.5,646C 472.692,645.692 472.025,645.192 471.5,644.5C 472.811,643.742 473.311,642.742 473,641.5C 470.731,639.161 469.231,639.828 468.5,643.5C 467.663,641.156 466.329,639.156 464.5,637.5C 463.833,639.5 463.167,641.5 462.5,643.5C 460.917,641.01 459.917,638.343 459.5,635.5C 456.833,635.5 454.167,635.5 451.5,635.5C 451.5,634.167 451.5,632.833 451.5,631.5C 450.167,631.5 448.833,631.5 447.5,631.5C 447.5,628.833 447.5,626.167 447.5,623.5C 446.167,623.5 444.833,623.5 443.5,623.5C 443.5,622.167 443.5,620.833 443.5,619.5C 442.167,619.5 440.833,619.5 439.5,619.5C 439.5,618.167 439.5,616.833 439.5,615.5C 436.833,615.5 434.167,615.5 431.5,615.5C 431.5,612.833 431.5,610.167 431.5,607.5C 428.833,607.5 426.167,607.5 423.5,607.5C 423.5,604.833 423.5,602.167 423.5,599.5C 420.833,599.5 418.167,599.5 415.5,599.5C 415.664,596.813 415.497,594.146 415,591.5C 412.619,590.565 410.119,590.232 407.5,590.5C 407.5,588.167 407.5,585.833 407.5,583.5C 406.167,583.5 404.833,583.5 403.5,583.5C 403.5,582.5 403.5,581.5 403.5,580.5C 402.167,580.5 400.833,580.5 399.5,580.5C 399.5,578.833 399.5,577.167 399.5,575.5C 396.833,575.5 394.167,575.5 391.5,575.5C 391.5,574.167 391.5,572.833 391.5,571.5C 388.833,571.5 386.167,571.5 383.5,571.5C 383.5,570.167 383.5,568.833 383.5,567.5C 382.5,567.5 381.5,567.5 380.5,567.5C 380.5,572.833 380.5,578.167 380.5,583.5C 380.5,585.5 380.5,587.5 380.5,589.5C 379.506,579.347 379.172,569.014 379.5,558.5C 380.106,555.833 380.939,553.166 382,550.5C 382.287,552.891 382.787,555.224 383.5,557.5C 387.467,558.472 391.467,559.305 395.5,560C 403.086,568.437 412.086,573.603 422.5,575.5 Z"/></g>
<g><path style="opacity:1" fill="#285eac" d="M 466.5,546.5 C 469.968,550.141 473.302,553.974 476.5,558C 479.567,560.188 482.567,562.355 485.5,564.5C 485.898,567.34 486.731,570.007 488,572.5C 488.923,571.241 489.757,569.908 490.5,568.5C 493.638,570.503 493.971,572.669 491.5,575C 492.916,577.265 494.916,578.431 497.5,578.5C 497.281,577.325 497.614,576.325 498.5,575.5C 499.5,576.833 500.5,576.833 501.5,575.5C 503.054,577.933 503.72,580.6 503.5,583.5C 504.833,583.5 506.167,583.5 507.5,583.5C 509.555,588.291 511.055,593.291 512,598.5C 513.011,599.337 514.178,599.67 515.5,599.5C 515.659,602.155 516.659,604.488 518.5,606.5C 519.386,605.675 519.719,604.675 519.5,603.5C 520.978,603.238 522.311,603.571 523.5,604.5C 526.016,607.183 528.683,609.683 531.5,612C 525.116,611.864 518.782,611.031 512.5,609.5C 502.177,605.359 493.344,599.026 486,590.5C 481.914,583.993 477.58,577.66 473,571.5C 471.837,565.532 470.837,559.532 470,553.5C 469.29,552.027 468.124,551.36 466.5,551.5C 466.5,549.833 466.5,548.167 466.5,546.5 Z"/></g>
<g><path style="opacity:1" fill="#306eb5" d="M 495.5,569.5 C 499.538,569.958 503.538,570.624 507.5,571.5C 515.352,572.715 523.352,572.715 531.5,571.5C 531.5,572.167 531.5,572.833 531.5,573.5C 529.073,576.81 528.907,580.477 531,584.5C 532.356,583.62 533.856,583.286 535.5,583.5C 535.5,584.833 535.5,586.167 535.5,587.5C 536.833,587.5 538.167,587.5 539.5,587.5C 539.5,588.833 539.5,590.167 539.5,591.5C 540.833,591.5 542.167,591.5 543.5,591.5C 543.5,592.833 543.5,594.167 543.5,595.5C 546.599,595.092 548.933,596.259 550.5,599C 551.833,599.333 553.167,599.667 554.5,600C 554.958,602.831 556.292,605.164 558.5,607C 558.018,608.008 557.852,609.175 558,610.5C 554.945,611.914 551.778,613.081 548.5,614C 548.833,614.333 549.167,614.667 549.5,615C 548.422,615.674 547.755,616.674 547.5,618C 548.185,620.54 549.019,623.04 550,625.5C 552.747,627.493 554.914,629.993 556.5,633C 555.419,635.685 553.752,637.851 551.5,639.5C 549.372,636.87 547.039,634.37 544.5,632C 545.5,631.667 546.5,631.333 547.5,631C 545.126,628.961 543.126,626.628 541.5,624C 540.906,623.536 540.239,623.369 539.5,623.5C 538.432,622.566 537.099,622.232 535.5,622.5C 535.559,619.951 534.559,617.951 532.5,616.5C 533.902,615.158 533.569,614.324 531.5,614C 534.014,612.748 536.68,612.248 539.5,612.5C 539.5,611.5 539.5,610.5 539.5,609.5C 535.544,608.947 535.544,608.114 539.5,607C 536.854,606.503 534.187,606.336 531.5,606.5C 531.5,604.5 531.5,602.5 531.5,600.5C 526.751,599.414 524.084,596.414 523.5,591.5C 522.167,591.5 520.833,591.5 519.5,591.5C 519.5,588.833 519.5,586.167 519.5,583.5C 516.813,583.664 514.146,583.497 511.5,583C 512.777,580.534 512.777,578.034 511.5,575.5C 505.846,574.064 500.513,572.064 495.5,569.5 Z"/></g>
<g><path style="opacity:1" fill="#97bcd9" d="M 638.5,623.5 C 637.833,624.833 636.833,625.833 635.5,626.5C 634.886,623.724 634.719,621.057 635,618.5C 632.97,616.263 630.47,614.763 627.5,614C 630.167,613.333 630.167,612.667 627.5,612C 628.167,611.667 628.833,611.333 629.5,611C 623.976,608.313 620.309,603.98 618.5,598C 615.893,595.895 612.893,595.062 609.5,595.5C 609.475,591.6 609.809,587.6 610.5,583.5C 608.143,583.663 605.81,583.497 603.5,583C 604.951,579.889 606.785,577.056 609,574.5C 609.798,570.073 611.298,565.906 613.5,562C 612.748,561.329 612.414,560.496 612.5,559.5C 612.435,559.062 612.601,558.728 613,558.5C 615.419,560.754 617.252,563.421 618.5,566.5C 619.5,567 620.5,567.5 621.5,568C 620.027,568.71 619.36,569.876 619.5,571.5C 616.37,571.599 613.704,572.766 611.5,575C 612.793,575.49 614.127,575.657 615.5,575.5C 615.5,576.833 615.5,578.167 615.5,579.5C 618.167,579.5 620.833,579.5 623.5,579.5C 623.167,582.5 624.5,583.833 627.5,583.5C 627.5,584.833 627.5,586.167 627.5,587.5C 628.833,587.5 630.167,587.5 631.5,587.5C 631.335,591.182 631.501,594.848 632,598.5C 634.381,599.435 636.881,599.768 639.5,599.5C 639.201,601.604 639.534,603.604 640.5,605.5C 642.24,606.716 643.24,608.382 643.5,610.5C 641.537,614.753 639.87,619.087 638.5,623.5 Z"/></g>
<g><path style="opacity:1" fill="#3e89c3" d="M 588.5,597.5 C 584.64,600.93 580.307,603.597 575.5,605.5C 572.675,605.162 570.508,606.162 569,608.5C 568.501,605.978 568.668,603.478 569.5,601C 568.622,599.2 567.955,597.367 567.5,595.5C 566.178,595.67 565.011,595.337 564,594.5C 563.023,592.26 562.523,589.927 562.5,587.5C 561.5,587.5 560.5,587.5 559.5,587.5C 559.5,586.167 559.5,584.833 559.5,583.5C 558.167,583.5 556.833,583.5 555.5,583.5C 555.5,582.167 555.5,580.833 555.5,579.5C 554.167,579.5 552.833,579.5 551.5,579.5C 551.5,578.5 551.5,577.5 551.5,576.5C 547.44,577.152 545.44,575.485 545.5,571.5C 543.5,571.5 541.5,571.5 539.5,571.5C 539.5,570.5 539.5,569.5 539.5,568.5C 536.921,569.656 534.255,570.656 531.5,571.5C 523.352,572.715 515.352,572.715 507.5,571.5C 517.485,572.274 527.152,570.94 536.5,567.5C 541.448,567.479 546.448,567.479 551.5,567.5C 551.687,570.026 553.02,571.693 555.5,572.5C 558.115,571.731 560.781,571.397 563.5,571.5C 563.5,572.833 563.5,574.167 563.5,575.5C 564.833,575.5 566.167,575.5 567.5,575.5C 567.5,576.833 567.5,578.167 567.5,579.5C 568.833,579.5 570.167,579.5 571.5,579.5C 571.5,580.833 571.5,582.167 571.5,583.5C 572.833,583.5 574.167,583.5 575.5,583.5C 575.5,584.833 575.5,586.167 575.5,587.5C 579.129,589.76 583.129,591.093 587.5,591.5C 587.325,593.621 587.659,595.621 588.5,597.5 Z"/></g>
<g><path style="opacity:1" fill="#9fc2db" d="M 610.5,507.5 C 611.167,515.343 611.833,523.343 612.5,531.5C 615.432,534.797 619.099,536.13 623.5,535.5C 623.5,537.833 623.5,540.167 623.5,542.5C 626.91,542.384 628.244,544.05 627.5,547.5C 628.833,547.5 630.167,547.5 631.5,547.5C 631.5,548.833 631.5,550.167 631.5,551.5C 632.833,551.5 634.167,551.5 635.5,551.5C 635.205,556.419 633.038,560.419 629,563.5C 628.333,564.833 628.333,566.167 629,567.5C 629.414,567.043 629.914,566.709 630.5,566.5C 631.509,572.848 635.175,575.848 641.5,575.5C 641.5,576.833 641.5,578.167 641.5,579.5C 642.833,579.5 644.167,579.5 645.5,579.5C 646.69,582.741 647.69,586.074 648.5,589.5C 648.18,592.715 648.18,596.048 648.5,599.5C 646.902,608.311 643.569,616.311 638.5,623.5C 639.87,619.087 641.537,614.753 643.5,610.5C 643.24,608.382 642.24,606.716 640.5,605.5C 639.534,603.604 639.201,601.604 639.5,599.5C 636.881,599.768 634.381,599.435 632,598.5C 631.501,594.848 631.335,591.182 631.5,587.5C 630.167,587.5 628.833,587.5 627.5,587.5C 627.5,586.167 627.5,584.833 627.5,583.5C 624.5,583.833 623.167,582.5 623.5,579.5C 620.833,579.5 618.167,579.5 615.5,579.5C 615.5,578.167 615.5,576.833 615.5,575.5C 614.127,575.657 612.793,575.49 611.5,575C 613.704,572.766 616.37,571.599 619.5,571.5C 619.36,569.876 620.027,568.71 621.5,568C 620.5,567.5 619.5,567 618.5,566.5C 617.252,563.421 615.419,560.754 613,558.5C 612.601,558.728 612.435,559.062 612.5,559.5C 611.833,551.833 611.167,544.167 610.5,536.5C 610.5,536.167 610.5,535.833 610.5,535.5C 610.5,526.167 610.5,516.833 610.5,507.5 Z"/></g>
<g><path style="opacity:1" fill="#88b3d6" d="M 610.5,536.5 C 611.167,544.167 611.833,551.833 612.5,559.5C 612.414,560.496 612.748,561.329 613.5,562C 611.298,565.906 609.798,570.073 609,574.5C 606.785,577.056 604.951,579.889 603.5,583C 605.81,583.497 608.143,583.663 610.5,583.5C 609.809,587.6 609.475,591.6 609.5,595.5C 612.893,595.062 615.893,595.895 618.5,598C 620.309,603.98 623.976,608.313 629.5,611C 628.833,611.333 628.167,611.667 627.5,612C 630.167,612.667 630.167,613.333 627.5,614C 630.47,614.763 632.97,616.263 635,618.5C 634.719,621.057 634.886,623.724 635.5,626.5C 634.92,628.749 633.587,630.415 631.5,631.5C 631.449,629.43 632.115,627.597 633.5,626C 633.167,625.5 632.833,625 632.5,624.5C 629.891,623.77 627.224,623.27 624.5,623C 623.702,617.869 620.702,615.202 615.5,615C 612.603,613.285 611.269,610.785 611.5,607.5C 608.14,607.384 604.807,607.051 601.5,606.5C 601.007,604.194 600.674,601.861 600.5,599.5C 593.951,599.093 593.951,598.093 600.5,596.5C 598.955,595.548 597.288,595.215 595.5,595.5C 596.5,592.833 597.5,590.167 598.5,587.5C 601.694,582.446 604.361,577.112 606.5,571.5C 608.175,568.112 609.342,564.445 610,560.5C 610.5,552.507 610.666,544.507 610.5,536.5 Z"/></g>
<g><path style="opacity:1" fill="#d2dcf2" d="M 379.5,600.5 C 379.833,600.5 380.167,600.5 380.5,600.5C 381.035,604.309 382.035,607.976 383.5,611.5C 382.85,611.196 382.183,610.863 381.5,610.5C 380.402,607.247 379.736,603.914 379.5,600.5 Z"/></g>
<g><path style="opacity:1" fill="#1a3aa0" d="M 380.5,583.5 C 381.5,583.5 382.5,583.5 383.5,583.5C 383.5,584.833 383.5,586.167 383.5,587.5C 386.167,587.5 388.833,587.5 391.5,587.5C 391.5,588.833 391.5,590.167 391.5,591.5C 392.833,591.5 394.167,591.5 395.5,591.5C 395.5,594.167 395.5,596.833 395.5,599.5C 398.167,599.5 400.833,599.5 403.5,599.5C 403.5,600.833 403.5,602.167 403.5,603.5C 404.833,603.5 406.167,603.5 407.5,603.5C 407.5,604.833 407.5,606.167 407.5,607.5C 410.167,607.5 412.833,607.5 415.5,607.5C 415.187,610.247 415.52,612.914 416.5,615.5C 421.169,616.323 424.502,618.823 426.5,623C 428.134,623.494 429.801,623.66 431.5,623.5C 431.5,624.833 431.5,626.167 431.5,627.5C 432.833,627.5 434.167,627.5 435.5,627.5C 435.5,630.167 435.5,632.833 435.5,635.5C 436.833,635.5 438.167,635.5 439.5,635.5C 439.5,636.833 439.5,638.167 439.5,639.5C 438.167,639.5 436.833,639.5 435.5,639.5C 435.813,642.247 435.48,644.914 434.5,647.5C 433.707,647.931 432.873,648.265 432,648.5C 423.452,646.706 415.285,644.039 407.5,640.5C 406.833,640.5 406.5,640.167 406.5,639.5C 403.905,635.874 400.572,633.208 396.5,631.5C 395.833,630.5 395.167,629.5 394.5,628.5C 392.098,624.146 389.598,619.813 387,615.5C 386.51,614.207 386.343,612.873 386.5,611.5C 385.5,611.5 384.5,611.5 383.5,611.5C 382.035,607.976 381.035,604.309 380.5,600.5C 380.5,596.833 380.5,593.167 380.5,589.5C 380.5,587.5 380.5,585.5 380.5,583.5 Z"/></g>
<g><path style="opacity:1" fill="#71a2ce" d="M 591.5,595.5 C 590.474,598.372 588.807,600.872 586.5,603C 587.38,604.356 587.714,605.856 587.5,607.5C 588.833,607.5 590.167,607.5 591.5,607.5C 591.5,608.833 591.5,610.167 591.5,611.5C 592.833,611.5 594.167,611.5 595.5,611.5C 595.5,612.833 595.5,614.167 595.5,615.5C 596.833,615.5 598.167,615.5 599.5,615.5C 599.5,616.833 599.5,618.167 599.5,619.5C 598.167,619.5 596.833,619.5 595.5,619.5C 595.5,618.5 595.5,617.5 595.5,616.5C 594.5,616.5 593.5,616.5 592.5,616.5C 592.5,618.833 592.5,621.167 592.5,623.5C 593.5,623.5 594.5,623.5 595.5,623.5C 595.5,624.833 595.5,626.167 595.5,627.5C 596.833,627.5 598.167,627.5 599.5,627.5C 599.5,628.833 599.5,630.167 599.5,631.5C 602.397,631.125 605.063,631.625 607.5,633C 605.833,633.333 604.167,633.667 602.5,634C 603.634,635.016 603.301,635.683 601.5,636C 602.45,638.91 604.45,640.077 607.5,639.5C 607.5,640.833 607.5,642.167 607.5,643.5C 611.089,643.484 611.255,644.484 608,646.5C 605.205,647.185 602.372,647.685 599.5,648C 598.692,649.706 597.359,650.539 595.5,650.5C 595.212,647.195 596.212,644.362 598.5,642C 595.077,639.321 593.077,635.821 592.5,631.5C 590.253,630.626 587.92,630.292 585.5,630.5C 585.799,628.396 585.466,626.396 584.5,624.5C 583.719,625.729 583.219,627.062 583,628.5C 581.047,625.745 579.88,622.745 579.5,619.5C 578.167,619.5 576.833,619.5 575.5,619.5C 575.108,616.685 574.108,614.185 572.5,612C 572.773,610.467 573.106,608.967 573.5,607.5C 574.167,606.833 574.833,606.167 575.5,605.5C 580.307,603.597 584.64,600.93 588.5,597.5C 589.5,596.833 590.5,596.167 591.5,595.5 Z"/></g>
<g><path style="opacity:1" fill="#7baacf" d="M 598.5,587.5 C 597.5,590.167 596.5,592.833 595.5,595.5C 597.288,595.215 598.955,595.548 600.5,596.5C 593.951,598.093 593.951,599.093 600.5,599.5C 600.674,601.861 601.007,604.194 601.5,606.5C 604.807,607.051 608.14,607.384 611.5,607.5C 611.269,610.785 612.603,613.285 615.5,615C 620.702,615.202 623.702,617.869 624.5,623C 627.224,623.27 629.891,623.77 632.5,624.5C 632.833,625 633.167,625.5 633.5,626C 632.115,627.597 631.449,629.43 631.5,631.5C 620.717,643.226 607.383,650.226 591.5,652.5C 592.183,650.824 593.517,650.157 595.5,650.5C 597.359,650.539 598.692,649.706 599.5,648C 602.372,647.685 605.205,647.185 608,646.5C 611.255,644.484 611.089,643.484 607.5,643.5C 607.5,642.167 607.5,640.833 607.5,639.5C 604.45,640.077 602.45,638.91 601.5,636C 603.301,635.683 603.634,635.016 602.5,634C 604.167,633.667 605.833,633.333 607.5,633C 605.063,631.625 602.397,631.125 599.5,631.5C 599.5,630.167 599.5,628.833 599.5,627.5C 598.167,627.5 596.833,627.5 595.5,627.5C 595.5,626.167 595.5,624.833 595.5,623.5C 594.5,623.5 593.5,623.5 592.5,623.5C 592.5,621.167 592.5,618.833 592.5,616.5C 593.5,616.5 594.5,616.5 595.5,616.5C 595.5,617.5 595.5,618.5 595.5,619.5C 596.833,619.5 598.167,619.5 599.5,619.5C 599.5,618.167 599.5,616.833 599.5,615.5C 598.167,615.5 596.833,615.5 595.5,615.5C 595.5,614.167 595.5,612.833 595.5,611.5C 594.167,611.5 592.833,611.5 591.5,611.5C 591.5,610.167 591.5,608.833 591.5,607.5C 590.167,607.5 588.833,607.5 587.5,607.5C 587.714,605.856 587.38,604.356 586.5,603C 588.807,600.872 590.474,598.372 591.5,595.5C 591.5,595.167 591.5,594.833 591.5,594.5C 593.167,593.5 594.5,592.167 595.5,590.5C 596.272,589.306 597.272,588.306 598.5,587.5 Z"/></g>
<g><path style="opacity:1" fill="#20499d" d="M 461.5,609.5 C 462.167,609.5 462.833,609.5 463.5,609.5C 465.102,611.074 467.102,611.741 469.5,611.5C 478.113,612.442 486.779,612.775 495.5,612.5C 494.391,613.29 493.058,613.79 491.5,614C 496.658,614.683 496.658,615.516 491.5,616.5C 491.5,618.833 491.5,621.167 491.5,623.5C 492.833,623.5 494.167,623.5 495.5,623.5C 495.5,624.833 495.5,626.167 495.5,627.5C 502.542,625.904 506.542,628.57 507.5,635.5C 508.873,635.343 510.207,635.51 511.5,636C 511.342,639.288 511.342,642.788 511.5,646.5C 514.914,646.736 518.247,647.402 521.5,648.5C 521.137,649.183 520.804,649.85 520.5,650.5C 519.048,651.302 517.382,651.802 515.5,652C 518.146,652.497 520.813,652.664 523.5,652.5C 523.5,652.833 523.5,653.167 523.5,653.5C 495.5,653.5 467.5,653.5 439.5,653.5C 435.521,653.258 431.854,652.258 428.5,650.5C 439.339,651.863 450.339,652.53 461.5,652.5C 470.839,652.666 480.173,652.5 489.5,652C 491.087,651.138 492.754,650.471 494.5,650C 491.02,647.73 487.353,647.063 483.5,648C 483.833,647.667 484.167,647.333 484.5,647C 483.328,646.581 482.328,645.915 481.5,645C 483.192,643.599 483.859,641.766 483.5,639.5C 482.167,639.5 480.833,639.5 479.5,639.5C 477.494,635.785 476.161,631.785 475.5,627.5C 470.882,628.299 467.049,626.966 464,623.5C 462.27,624.649 460.604,624.649 459,623.5C 459.02,619.275 457.853,615.442 455.5,612C 457.502,610.981 459.502,610.148 461.5,609.5 Z"/></g>
<g><path style="opacity:1" fill="#3d78b8" d="M 531.5,573.5 C 534.474,577.179 538.141,580.179 542.5,582.5C 543.452,584.045 543.785,585.712 543.5,587.5C 544.833,587.5 546.167,587.5 547.5,587.5C 547.5,588.833 547.5,590.167 547.5,591.5C 551.437,591.207 555.27,591.54 559,592.5C 559.286,594.999 559.119,597.165 558.5,599C 560.527,602.524 562.86,605.857 565.5,609C 563.608,609.973 561.608,610.64 559.5,611C 555.442,614.149 556.109,615.649 561.5,615.5C 561.754,618.014 562.587,620.348 564,622.5C 564.671,621.748 565.504,621.414 566.5,621.5C 565.692,624.45 564.358,627.117 562.5,629.5C 554.357,635.555 552.357,643.055 556.5,652C 546.172,652.5 535.839,652.666 525.5,652.5C 529.953,650.712 534.62,649.212 539.5,648C 543.742,645.39 547.742,642.557 551.5,639.5C 553.752,637.851 555.419,635.685 556.5,633C 554.914,629.993 552.747,627.493 550,625.5C 549.019,623.04 548.185,620.54 547.5,618C 547.755,616.674 548.422,615.674 549.5,615C 549.167,614.667 548.833,614.333 548.5,614C 551.778,613.081 554.945,611.914 558,610.5C 557.852,609.175 558.018,608.008 558.5,607C 556.292,605.164 554.958,602.831 554.5,600C 553.167,599.667 551.833,599.333 550.5,599C 548.933,596.259 546.599,595.092 543.5,595.5C 543.5,594.167 543.5,592.833 543.5,591.5C 542.167,591.5 540.833,591.5 539.5,591.5C 539.5,590.167 539.5,588.833 539.5,587.5C 538.167,587.5 536.833,587.5 535.5,587.5C 535.5,586.167 535.5,584.833 535.5,583.5C 533.856,583.286 532.356,583.62 531,584.5C 528.907,580.477 529.073,576.81 531.5,573.5 Z"/></g>
<g><path style="opacity:1" fill="#2d408d" d="M 383.5,611.5 C 384.5,611.5 385.5,611.5 386.5,611.5C 386.343,612.873 386.51,614.207 387,615.5C 389.598,619.813 392.098,624.146 394.5,628.5C 389.686,623.664 386.019,617.998 383.5,611.5 Z"/></g>
<g><path style="opacity:1" fill="#6797c7" d="M 573.5,607.5 C 573.106,608.967 572.773,610.467 572.5,612C 574.108,614.185 575.108,616.685 575.5,619.5C 576.833,619.5 578.167,619.5 579.5,619.5C 579.88,622.745 581.047,625.745 583,628.5C 583.219,627.062 583.719,625.729 584.5,624.5C 585.466,626.396 585.799,628.396 585.5,630.5C 587.92,630.292 590.253,630.626 592.5,631.5C 593.077,635.821 595.077,639.321 598.5,642C 596.212,644.362 595.212,647.195 595.5,650.5C 593.517,650.157 592.183,650.824 591.5,652.5C 589.031,653.317 586.365,653.817 583.5,654C 535.332,654.832 487.332,654.665 439.5,653.5C 467.5,653.5 495.5,653.5 523.5,653.5C 543.169,653.667 562.836,653.5 582.5,653C 579.167,652.667 575.833,652.333 572.5,652C 570.914,648.302 571.914,647.135 575.5,648.5C 578.806,647.837 582.139,647.337 585.5,647C 584.027,646.29 583.36,645.124 583.5,643.5C 580.833,643.5 578.167,643.5 575.5,643.5C 575.5,642.167 575.5,640.833 575.5,639.5C 569.5,640.167 566.833,637.5 567.5,631.5C 565.508,631.328 563.842,631.995 562.5,633.5C 561.708,632.3 561.708,630.967 562.5,629.5C 564.358,627.117 565.692,624.45 566.5,621.5C 569.619,617.09 571.952,612.424 573.5,607.5 Z"/></g>
<g><path style="opacity:1" fill="#283a83" d="M 396.5,631.5 C 400.572,633.208 403.905,635.874 406.5,639.5C 402.793,637.312 399.46,634.645 396.5,631.5 Z"/></g>
<g><path style="opacity:1" fill="#568ac1" d="M 562.5,629.5 C 561.708,630.967 561.708,632.3 562.5,633.5C 563.842,631.995 565.508,631.328 567.5,631.5C 566.833,637.5 569.5,640.167 575.5,639.5C 575.5,640.833 575.5,642.167 575.5,643.5C 578.167,643.5 580.833,643.5 583.5,643.5C 583.36,645.124 584.027,646.29 585.5,647C 582.139,647.337 578.806,647.837 575.5,648.5C 571.914,647.135 570.914,648.302 572.5,652C 575.833,652.333 579.167,652.667 582.5,653C 562.836,653.5 543.169,653.667 523.5,653.5C 523.5,653.167 523.5,652.833 523.5,652.5C 524.167,652.5 524.833,652.5 525.5,652.5C 535.839,652.666 546.172,652.5 556.5,652C 552.357,643.055 554.357,635.555 562.5,629.5 Z"/></g>
<g><path style="opacity:1" fill="#2c60a9" d="M 508.5,612.5 C 509.5,612.5 510.5,612.5 511.5,612.5C 515.68,612.189 519.68,612.855 523.5,614.5C 519.848,615.521 519.514,617.188 522.5,619.5C 526.266,622.651 528.1,621.651 528,616.5C 528.75,617.126 529.584,617.626 530.5,618C 532.108,622.626 534.941,626.46 539,629.5C 539.667,628.5 539.667,627.5 539,626.5C 535.7,624.443 535.867,623.443 539.5,623.5C 540.239,623.369 540.906,623.536 541.5,624C 543.126,626.628 545.126,628.961 547.5,631C 546.5,631.333 545.5,631.667 544.5,632C 547.039,634.37 549.372,636.87 551.5,639.5C 547.742,642.557 543.742,645.39 539.5,648C 534.62,649.212 529.953,650.712 525.5,652.5C 524.833,652.5 524.167,652.5 523.5,652.5C 520.813,652.664 518.146,652.497 515.5,652C 517.382,651.802 519.048,651.302 520.5,650.5C 524.167,650.836 527.5,650.003 530.5,648C 529.552,647.517 528.552,647.351 527.5,647.5C 527.5,646.167 527.5,644.833 527.5,643.5C 526.167,643.5 524.833,643.5 523.5,643.5C 524.443,638.896 525.776,634.396 527.5,630C 524.192,627.341 520.525,625.175 516.5,623.5C 515.679,620.553 515.179,617.553 515,614.5C 512.438,616.938 509.938,616.938 507.5,614.5C 507.863,613.817 508.196,613.15 508.5,612.5 Z"/></g>
<g><path style="opacity:1" fill="#2656a6" d="M 495.5,612.5 C 499.833,612.5 504.167,612.5 508.5,612.5C 508.196,613.15 507.863,613.817 507.5,614.5C 509.938,616.938 512.438,616.938 515,614.5C 515.179,617.553 515.679,620.553 516.5,623.5C 520.525,625.175 524.192,627.341 527.5,630C 525.776,634.396 524.443,638.896 523.5,643.5C 524.833,643.5 526.167,643.5 527.5,643.5C 527.5,644.833 527.5,646.167 527.5,647.5C 528.552,647.351 529.552,647.517 530.5,648C 527.5,650.003 524.167,650.836 520.5,650.5C 520.804,649.85 521.137,649.183 521.5,648.5C 518.247,647.402 514.914,646.736 511.5,646.5C 511.342,642.788 511.342,639.288 511.5,636C 510.207,635.51 508.873,635.343 507.5,635.5C 506.542,628.57 502.542,625.904 495.5,627.5C 495.5,626.167 495.5,624.833 495.5,623.5C 494.167,623.5 492.833,623.5 491.5,623.5C 491.5,621.167 491.5,618.833 491.5,616.5C 496.658,615.516 496.658,614.683 491.5,614C 493.058,613.79 494.391,613.29 495.5,612.5 Z"/></g>
<g><path style="opacity:1" fill="#f4f4f4" d="M 447.5,720.5 C 487.501,720.667 527.501,720.5 567.5,720C 579.7,719.829 591.7,718.996 603.5,717.5C 606.625,716.521 609.958,716.187 613.5,716.5C 623.632,717.179 632.966,715.513 641.5,711.5C 641.023,710.522 640.357,709.689 639.5,709C 634.047,708.637 628.714,707.637 623.5,706C 547.501,701.528 471.501,701.528 395.5,706C 390.311,707.798 384.978,708.631 379.5,708.5C 379.081,711.325 380.081,713.491 382.5,715C 392.449,716.44 402.449,717.44 412.5,718C 413.416,718.278 414.082,718.778 414.5,719.5C 403.462,718.912 392.462,717.912 381.5,716.5C 380.014,716.897 378.514,717.23 377,717.5C 373.988,716.131 370.821,715.464 367.5,715.5C 367.5,714.167 367.5,712.833 367.5,711.5C 362.611,711.41 362.277,710.244 366.5,708C 402.63,704.221 438.963,701.888 475.5,701C 531.567,699.669 587.567,701.002 643.5,705C 653.369,707.654 663.369,709.654 673.5,711C 670.559,713.239 667.226,714.572 663.5,715C 618.395,720.222 573.062,722.722 527.5,722.5C 506.808,721.853 486.141,721.853 465.5,722.5C 459.347,721.914 453.347,721.247 447.5,720.5 Z"/></g>
<g><path style="opacity:1" fill="#ebebeb" d="M 613.5,716.5 C 616.366,714.239 619.699,712.739 623.5,712C 622.333,710.833 621.167,709.667 620,708.5C 619.586,708.957 619.086,709.291 618.5,709.5C 612.452,708.131 606.118,706.964 599.5,706C 550.183,703.207 500.849,702.874 451.5,705C 447.312,705.176 443.312,705.676 439.5,706.5C 425.173,707.075 410.839,707.575 396.5,708C 393.42,708.766 390.42,709.766 387.5,711C 390.559,711.058 392.892,712.391 394.5,715C 464.108,719.815 533.775,720.648 603.5,717.5C 591.7,718.996 579.7,719.829 567.5,720C 527.501,720.5 487.501,720.667 447.5,720.5C 436.473,720.713 425.473,720.38 414.5,719.5C 414.082,718.778 413.416,718.278 412.5,718C 402.449,717.44 392.449,716.44 382.5,715C 380.081,713.491 379.081,711.325 379.5,708.5C 384.978,708.631 390.311,707.798 395.5,706C 471.501,701.528 547.501,701.528 623.5,706C 628.714,707.637 634.047,708.637 639.5,709C 640.357,709.689 641.023,710.522 641.5,711.5C 632.966,715.513 623.632,717.179 613.5,716.5 Z"/></g>
<g><path style="opacity:1" fill="#d9d9d9" d="M 613.5,716.5 C 609.958,716.187 606.625,716.521 603.5,717.5C 533.775,720.648 464.108,719.815 394.5,715C 392.892,712.391 390.559,711.058 387.5,711C 390.42,709.766 393.42,708.766 396.5,708C 410.839,707.575 425.173,707.075 439.5,706.5C 443.312,705.676 447.312,705.176 451.5,705C 500.849,702.874 550.183,703.207 599.5,706C 606.118,706.964 612.452,708.131 618.5,709.5C 619.086,709.291 619.586,708.957 620,708.5C 621.167,709.667 622.333,710.833 623.5,712C 619.699,712.739 616.366,714.239 613.5,716.5 Z"/></g>
<g><path style="opacity:1" fill="#c6c6c6" d="M 439.5,706.5 C 487.505,705.038 535.505,705.204 583.5,707C 589.5,707.833 595.5,708.667 601.5,709.5C 601.709,710.086 602.043,710.586 602.5,711C 601.027,711.71 600.36,712.876 600.5,714.5C 546.864,718.264 493.197,718.431 439.5,715C 425.18,712.453 425.18,709.62 439.5,706.5 Z"/></g>
<g><path style="opacity:1" fill="#b5b5b5" d="M 466.5,706.5 C 496.169,706.333 525.835,706.5 555.5,707C 566.21,708.071 576.877,709.404 587.5,711C 577.74,713.828 567.74,715.162 557.5,715C 528.833,715.667 500.167,715.667 471.5,715C 461.975,715.12 452.642,713.953 443.5,711.5C 451.201,709.362 458.867,707.696 466.5,706.5 Z"/></g>
<g><path style="opacity:1" fill="#a5a5a5" d="M 547.5,709.5 C 552.844,709.334 558.177,709.501 563.5,710C 564.938,710.219 566.271,710.719 567.5,711.5C 562.321,713.101 556.988,713.934 551.5,714C 528.833,714.667 506.167,714.667 483.5,714C 476.754,713.879 470.087,713.212 463.5,712C 467.107,710.353 470.774,709.019 474.5,708C 495.5,707.333 516.5,707.333 537.5,708C 541.025,708.179 544.359,708.679 547.5,709.5 Z"/></g>
<g><path style="opacity:1" fill="#8f9090" d="M 547.5,709.5 C 548.23,711.045 549.563,711.878 551.5,712C 530.199,713.404 508.866,713.904 487.5,713.5C 487.5,712.167 487.5,710.833 487.5,709.5C 507.5,709.5 527.5,709.5 547.5,709.5 Z"/></g>
<g><path style="opacity:1" fill="#c75716" d="M 980.5,900.5 C 971.111,892.113 962.445,883.113 954.5,873.5C 955.838,871.887 957.505,871.387 959.5,872C 967.333,879.833 975.167,887.667 983,895.5C 983.747,897.928 982.914,899.594 980.5,900.5 Z"/></g>
<g><path style="opacity:1" fill="#38312b" d="M 948.5,879.5 C 957.746,887.241 966.579,895.574 975,904.5C 975.464,905.094 975.631,905.761 975.5,906.5C 974.5,908.167 973.167,909.5 971.5,910.5C 964.5,902.833 957.167,895.5 949.5,888.5C 947.748,886.754 946.415,884.754 945.5,882.5C 946.167,881.167 947.167,880.167 948.5,879.5 Z"/></g>
<g><path style="opacity:1" fill="#e39e64" d="M 945.5,882.5 C 946.415,884.754 947.748,886.754 949.5,888.5C 947.938,888.267 946.605,887.6 945.5,886.5C 945.103,885.475 944.437,885.308 943.5,886C 938.575,891.432 933.242,896.265 927.5,900.5C 933.167,894.167 939.167,888.167 945.5,882.5 Z"/></g>
<g><path style="opacity:1" fill="#f59141" d="M 954.5,873.5 C 962.445,883.113 971.111,892.113 980.5,900.5C 979.557,903.109 977.89,905.109 975.5,906.5C 975.631,905.761 975.464,905.094 975,904.5C 966.579,895.574 957.746,887.241 948.5,879.5C 950.167,877.167 952.167,875.167 954.5,873.5 Z"/></g>
<g><path style="opacity:1" fill="#f9913e" d="M 945.5,886.5 C 945.314,890.787 947.647,893.287 952.5,894C 951.978,894.561 951.645,895.228 951.5,896C 952.429,897.077 953.096,898.244 953.5,899.5C 948.102,898.455 943.102,899.622 938.5,903C 926.952,910.215 917.785,919.715 911,931.5C 905.833,946.927 910.666,950.927 925.5,943.5C 925.918,944.222 926.584,944.722 927.5,945C 927.406,946.422 927.072,947.922 926.5,949.5C 924.35,951.149 922.35,952.982 920.5,955C 918.527,955.495 916.527,955.662 914.5,955.5C 908.833,950.5 903.5,945.167 898.5,939.5C 896.9,937.429 896.4,935.095 897,932.5C 899.782,930.229 901.949,927.563 903.5,924.5C 905.907,922.787 908.574,921.453 911.5,920.5C 912.281,919.271 912.781,917.938 913,916.5C 918.432,911.575 923.265,906.242 927.5,900.5C 933.242,896.265 938.575,891.432 943.5,886C 944.437,885.308 945.103,885.475 945.5,886.5 Z"/></g>
<g><path style="opacity:1" fill="#f59243" d="M 945.5,886.5 C 946.605,887.6 947.938,888.267 949.5,888.5C 957.167,895.5 964.5,902.833 971.5,910.5C 960.973,920.605 950.64,930.939 940.5,941.5C 935.685,941.551 933.018,943.884 932.5,948.5C 929.09,948.384 927.756,950.05 928.5,953.5C 925.272,956.306 922.272,959.306 919.5,962.5C 918.246,959.907 916.58,957.573 914.5,955.5C 916.527,955.662 918.527,955.495 920.5,955C 922.35,952.982 924.35,951.149 926.5,949.5C 927.072,947.922 927.406,946.422 927.5,945C 926.584,944.722 925.918,944.222 925.5,943.5C 936.079,937.09 944.912,928.756 952,918.5C 955.205,913.229 956.539,907.563 956,901.5C 955.292,900.619 954.458,899.953 953.5,899.5C 953.096,898.244 952.429,897.077 951.5,896C 951.645,895.228 951.978,894.561 952.5,894C 947.647,893.287 945.314,890.787 945.5,886.5 Z"/></g>
<g><path style="opacity:1" fill="#ee9b5a" d="M 894.5,895.5 C 895.793,896.842 896.626,898.509 897,900.5C 898.635,901.726 900.135,903.059 901.5,904.5C 897.701,905.802 895.535,908.469 895,912.5C 893.337,910.842 892.504,908.842 892.5,906.5C 890.158,906.496 888.158,905.663 886.5,904C 891.091,902.911 893.758,900.078 894.5,895.5 Z"/></g>
<g><path style="opacity:1" fill="#ba4d11" d="M 953.5,899.5 C 954.458,899.953 955.292,900.619 956,901.5C 956.539,907.563 955.205,913.229 952,918.5C 944.912,928.756 936.079,937.09 925.5,943.5C 910.666,950.927 905.833,946.927 911,931.5C 917.785,919.715 926.952,910.215 938.5,903C 943.102,899.622 948.102,898.455 953.5,899.5 Z"/></g>
<g><path style="opacity:1" fill="#ee9c58" d="M 927.5,900.5 C 923.265,906.242 918.432,911.575 913,916.5C 912.781,917.938 912.281,919.271 911.5,920.5C 908.574,921.453 905.907,922.787 903.5,924.5C 911.167,916.167 919.167,908.167 927.5,900.5 Z"/></g>
<g><path style="opacity:1" fill="#e59a5a" d="M 903.5,924.5 C 901.949,927.563 899.782,930.229 897,932.5C 896.4,935.095 896.9,937.429 898.5,939.5C 896.754,937.748 894.754,936.415 892.5,935.5C 895.833,931.5 899.5,927.833 903.5,924.5 Z"/></g>
<g><path style="opacity:1" fill="#eca061" d="M 973.5,942.5 C 972.504,942.586 971.671,942.252 971,941.5C 970.781,940.062 970.281,938.729 969.5,937.5C 968.511,939.586 967.178,941.253 965.5,942.5C 968.167,930.5 970.833,930.5 973.5,942.5 Z"/></g>
<g><path style="opacity:1" fill="#38302a" d="M 892.5,935.5 C 894.754,936.415 896.754,937.748 898.5,939.5C 903.5,945.167 908.833,950.5 914.5,955.5C 916.58,957.573 918.246,959.907 919.5,962.5C 918.833,963.833 917.833,964.833 916.5,965.5C 914.589,964.925 912.922,963.925 911.5,962.5C 910.5,960.833 909.167,959.5 907.5,958.5C 901.108,952.112 895.108,945.445 889.5,938.5C 890.167,937.167 891.167,936.167 892.5,935.5 Z"/></g>
<g><path style="opacity:1" fill="#f9923d" d="M 973.5,942.5 C 973.357,944.262 973.691,945.929 974.5,947.5C 973.224,948.645 971.891,948.645 970.5,947.5C 967.631,949.784 964.964,949.45 962.5,946.5C 963.524,945.148 964.524,943.815 965.5,942.5C 967.178,941.253 968.511,939.586 969.5,937.5C 970.281,938.729 970.781,940.062 971,941.5C 971.671,942.252 972.504,942.586 973.5,942.5 Z"/></g>
<g><path style="opacity:1" fill="#c0602a" d="M 883.5,944.5 C 883.833,944.5 884.167,944.5 884.5,944.5C 883.849,949.513 883.016,954.513 882,959.5C 881.26,961.319 880.093,962.652 878.5,963.5C 881.278,957.214 882.945,950.881 883.5,944.5 Z"/></g>
<g><path style="opacity:1" fill="#cb5516" d="M 884.5,944.5 C 885.167,944.833 885.833,945.167 886.5,945.5C 894.5,953.833 902.5,962.167 910.5,970.5C 908.574,973.649 905.908,974.315 902.5,972.5C 897.038,974.319 891.704,976.319 886.5,978.5C 883.165,979.339 879.832,979.839 876.5,980C 873.314,977.815 872.648,974.982 874.5,971.5C 875.326,968.515 876.659,965.849 878.5,963.5C 880.093,962.652 881.26,961.319 882,959.5C 883.016,954.513 883.849,949.513 884.5,944.5 Z"/></g>
<g><path style="opacity:1" fill="#ef9950" d="M 965.5,942.5 C 964.524,943.815 963.524,945.148 962.5,946.5C 964.964,949.45 967.631,949.784 970.5,947.5C 971.891,948.645 973.224,948.645 974.5,947.5C 973.691,945.929 973.357,944.262 973.5,942.5C 976.419,943.293 979.085,944.626 981.5,946.5C 978.721,947.389 976.055,948.556 973.5,950C 972.563,952.707 971.23,955.207 969.5,957.5C 968.074,955.063 966.741,952.563 965.5,950C 962.555,948.516 959.555,947.182 956.5,946C 959.293,944.346 962.293,943.179 965.5,942.5 Z"/></g>
<g><path style="opacity:1" fill="#ee9d5b" d="M 940.5,941.5 C 936.833,945.833 932.833,949.833 928.5,953.5C 927.756,950.05 929.09,948.384 932.5,948.5C 933.018,943.884 935.685,941.551 940.5,941.5 Z"/></g>
<g><path style="opacity:1" fill="#ed934b" d="M 889.5,938.5 C 895.108,945.445 901.108,952.112 907.5,958.5C 904.633,956.816 901.633,955.316 898.5,954C 898.087,950.867 896.587,948.367 894,946.5C 893.439,947.022 892.772,947.355 892,947.5C 890.685,944.955 888.852,944.288 886.5,945.5C 885.833,945.167 885.167,944.833 884.5,944.5C 884.167,944.5 883.833,944.5 883.5,944.5C 885.167,942.167 887.167,940.167 889.5,938.5 Z"/></g>
<g><path style="opacity:1" fill="#f8913e" d="M 907.5,958.5 C 909.167,959.5 910.5,960.833 911.5,962.5C 912.833,965.167 912.833,967.833 911.5,970.5C 911.167,970.5 910.833,970.5 910.5,970.5C 902.5,962.167 894.5,953.833 886.5,945.5C 888.852,944.288 890.685,944.955 892,947.5C 892.772,947.355 893.439,947.022 894,946.5C 896.587,948.367 898.087,950.867 898.5,954C 901.633,955.316 904.633,956.816 907.5,958.5 Z"/></g>
<g><path style="opacity:1" fill="#e59a5d" d="M 911.5,962.5 C 912.922,963.925 914.589,964.925 916.5,965.5C 915.167,967.5 913.5,969.167 911.5,970.5C 912.833,967.833 912.833,965.167 911.5,962.5 Z"/></g>
<g><path style="opacity:1" fill="#bf632f" d="M 874.5,971.5 C 872.648,974.982 873.314,977.815 876.5,980C 879.832,979.839 883.165,979.339 886.5,978.5C 883.694,980.57 880.694,982.07 877.5,983C 875.316,980.984 873.316,978.817 871.5,976.5C 872.275,974.604 873.275,972.937 874.5,971.5 Z"/></g>
</svg>
